<svg id="Group_388" data-name="Group 388" xmlns="http://www.w3.org/2000/svg" xmlns:xlink="http://www.w3.org/1999/xlink" width="58.263" height="75.898" viewBox="0 0 58.263 75.898">
  <defs>
    <clipPath id="clip-path">
      <rect id="Rectangle_94" data-name="Rectangle 94" width="58.263" height="75.898" fill="#fff"/>
    </clipPath>
  </defs>
  <g id="Group_387" data-name="Group 387" clip-path="url(#clip-path)">
    <path id="Path_17508" data-name="Path 17508" d="M46.065,48.914a5.9,5.9,0,0,1,1.242-.349,8.338,8.338,0,0,0,6.9-9.445,6,6,0,0,1,1.675-5.159,8.354,8.354,0,0,0-.029-11.719A5.99,5.99,0,0,1,54.2,17.129,8.351,8.351,0,0,0,47.3,7.66a5.973,5.973,0,0,1-4.329-3.15A8.341,8.341,0,0,0,31.81.891a5.97,5.97,0,0,1-5.367,0A8.343,8.343,0,0,0,15.294,4.509a5.981,5.981,0,0,1-4.353,3.154,8.354,8.354,0,0,0-6.878,9.5,5.985,5.985,0,0,1-1.675,5.1A8.36,8.36,0,0,0,2.417,34a5.986,5.986,0,0,1,1.645,5.1,8.344,8.344,0,0,0,6.895,9.468,5.9,5.9,0,0,1,1.239.348L1.448,66.855a1.186,1.186,0,0,0,1.341,1.75l8.689-2.466L13.4,74.964a1.185,1.185,0,0,0,2.175.357l12.26-20.465a6,6,0,0,1,2.585,0l12.26,20.465a1.186,1.186,0,0,0,2.175-.357l1.925-8.825,8.689,2.466a1.186,1.186,0,0,0,1.341-1.75ZM15.082,71.534,13.526,64.4a1.186,1.186,0,0,0-1.483-.888L5.021,65.506l9.16-15.291a5.909,5.909,0,0,1,1.116,1.5,8.338,8.338,0,0,0,9.053,4.345Zm10.3-18.3a5.961,5.961,0,0,1-7.971-2.593,8.352,8.352,0,0,0-6.072-4.414A5.971,5.971,0,0,1,6.409,39.43a8.378,8.378,0,0,0-2.337-7.135A5.974,5.974,0,0,1,4.1,23.909a8.368,8.368,0,0,0,2.3-7.139A5.973,5.973,0,0,1,11.347,10,8.353,8.353,0,0,0,17.4,5.594a5.964,5.964,0,0,1,7.977-2.586,8.356,8.356,0,0,0,7.506,0,5.961,5.961,0,0,1,7.969,2.59A8.363,8.363,0,0,0,46.937,10a5.975,5.975,0,0,1,4.915,6.8,8.367,8.367,0,0,0,2.333,7.13,5.978,5.978,0,0,1-.03,8.4,8.41,8.41,0,0,0-2.3,7.127,5.966,5.966,0,0,1-4.928,6.768,8.349,8.349,0,0,0-6.072,4.414,5.961,5.961,0,0,1-7.974,2.591A8.355,8.355,0,0,0,25.377,53.23Zm20.84,10.283a1.186,1.186,0,0,0-1.483.888l-1.557,7.133L33.91,56.062a8.268,8.268,0,0,0,9.054-4.342,5.906,5.906,0,0,1,1.116-1.5l9.16,15.291Z" transform="translate(0 0)" fill="#fff"/>
    <path id="Path_17509" data-name="Path 17509" d="M113.671,89.346a17.455,17.455,0,1,0-17.455,17.468,17.475,17.475,0,0,0,17.455-17.468m-17.455,15.1a15.089,15.089,0,1,1,15.083-15.1A15.107,15.107,0,0,1,96.215,104.442Z" transform="translate(-67.085 -61.234)" fill="#fff"/>
    <path id="Path_17510" data-name="Path 17510" d="M160.962,152.238l-8,8-2.084-2.084a1.186,1.186,0,0,0-1.677,1.677l2.922,2.923a1.186,1.186,0,0,0,1.677,0l8.834-8.834a1.186,1.186,0,1,0-1.677-1.677" transform="translate(-126.792 -129.374)" fill="#fff"/>
  </g>
</svg>
