<svg id="Group_316" data-name="Group 316" xmlns="http://www.w3.org/2000/svg" xmlns:xlink="http://www.w3.org/1999/xlink" width="72.246" height="79.828" viewBox="0 0 72.246 79.828">
  <defs>
    <clipPath id="clip-path">
      <rect id="Rectangle_52" data-name="Rectangle 52" width="72.246" height="79.828" fill="#fff"/>
    </clipPath>
  </defs>
  <g id="Group_315" data-name="Group 315" clip-path="url(#clip-path)">
    <path id="Path_303" data-name="Path 303" d="M111.228,0c4.081,1.009,7.09,3.607,9.8,6.644.207.232.51.46.562.73a2.014,2.014,0,0,1-.055,1.355,1.437,1.437,0,0,1-1.237.5,5.188,5.188,0,0,0-4.741.949,13.778,13.778,0,0,1-6.234,2.628,7.235,7.235,0,0,1-6.182-2.067l-.385-.366c-1.613.715-2.282,2.2-2.063,4.544,1.5.228,3.013.383,4.5.7a27.383,27.383,0,0,1,21.094,21.483,1.312,1.312,0,0,1-.962,1.691c-.7.151-1.311-.314-1.5-1.208a25.343,25.343,0,0,0-3.068-7.936c-.08-.132-.167-.26-.286-.444a17.168,17.168,0,0,0-2.536,4.1,32.4,32.4,0,0,1-1.936,3.625,4.36,4.36,0,0,1-3.954,2.058c-1.5-.028-3.007-.029-4.511-.039a5.544,5.544,0,0,0-4.812,2.529,11.2,11.2,0,0,0-1.924,4.544c-.175,1-.742,1.506-1.533,1.367-.747-.131-1.107-.771-.943-1.75a13,13,0,0,1,3.084-6.525c2.026-2.313,4.7-2.864,7.616-2.72,1.009.05,2.02.07,3.031.088a2.027,2.027,0,0,0,1.855-.949,19.617,19.617,0,0,0,1.425-2.578,20.026,20.026,0,0,1,3.77-6l-5.163-5a16.47,16.47,0,0,1-1.121,1.292,6.087,6.087,0,0,1-4.8,1.991,10.988,10.988,0,0,1-2.175-.539,3,3,0,0,0-3.043.579,10.855,10.855,0,0,1-5.327,2.359,6.743,6.743,0,0,1-6.3-2.06,44.667,44.667,0,0,1-3.273-4.322,6.433,6.433,0,0,1-.383-.664,21.678,21.678,0,0,0-6.586,5.272c.937.729,1.9,1.431,2.805,2.2A24.344,24.344,0,0,1,85.5,29.8c2.423,2.524,2.206,5.367.942,8.3-.542,1.26-1.174,2.483-1.785,3.712a1.247,1.247,0,1,1-2.288-.99c.38-.908.89-1.763,1.234-2.682a21.433,21.433,0,0,0,1.21-3.9,3.28,3.28,0,0,0-.682-2.061,16.694,16.694,0,0,0-4.876-4.335,22.084,22.084,0,0,0-3.95,8.513,59.159,59.159,0,0,0-.787,6.313c-.092.924-.456,1.477-1.214,1.5-.789.021-1.274-.544-1.288-1.5A27.405,27.405,0,0,1,94.513,15.425c1.17-.214,2.357-.337,3.547-.5a3.877,3.877,0,0,0-2.02-4.555,7.139,7.139,0,0,1-6.865,2.371,20.954,20.954,0,0,1-4.136-1.491,15.377,15.377,0,0,1-2.376-1.465,4.255,4.255,0,0,0-3.7-.629c-.712.2-1.345.236-1.783-.46a1.365,1.365,0,0,1,.331-1.758A22.506,22.506,0,0,1,85.03.885c.814-.37,1.7-.594,2.546-.885h2.334a.949.949,0,0,0,.257.146c3.849.756,6.271,2.749,6.616,7.231a.9.9,0,0,0,.285.587c.789.607,1.606,1.175,2.368,1.724a15.948,15.948,0,0,1,1.845-1.427,1.4,1.4,0,0,0,.79-1.271A6.879,6.879,0,0,1,107.285.485c.535-.166,1.072-.323,1.609-.485ZM89.746,19.412a13.4,13.4,0,0,0,3.963,5.026,4.34,4.34,0,0,0,3.017.74,8.59,8.59,0,0,0,4.645-1.968,4.774,4.774,0,0,1,3.811-1.193,11.267,11.267,0,0,1,2.181.527,2.823,2.823,0,0,0,2.724-.363c.568-.4,1.086-.864,1.746-1.4a25.111,25.111,0,0,0-22.087-1.372M94.122,6.736a4.475,4.475,0,0,0-.043-.49,5.307,5.307,0,0,0-6.041-3.681c-2.681.468-4.654,2.132-6.5,3.786,1.3.756,2.565,1.549,3.883,2.235a25.429,25.429,0,0,0,3.535,1.573,4.781,4.781,0,0,0,4.611-.906c-1.034-.44-1.983-.84-2.929-1.247s-1.3-1.054-.982-1.8c.3-.7,1.027-.9,1.922-.534.812.334,1.62.68,2.545,1.069m23.232-.29A17.932,17.932,0,0,0,112.607,3.1a6.361,6.361,0,0,0-5.955.38,3.918,3.918,0,0,0-1.984,3.256c1.017-.421,1.928-.833,2.865-1.176a1.181,1.181,0,0,1,1.658,1.335,1.874,1.874,0,0,1-.9,1.034c-.953.5-1.972.867-2.994,1.3a4.589,4.589,0,0,0,5,.778c2.383-1.087,4.685-2.351,7.063-3.56" transform="translate(-57.044)" fill="#fff"/>
    <path id="Path_304" data-name="Path 304" d="M20.728,236.558c-.356-.334-.721-.66-1.066-1Q10.2,226.076.737,216.6c-.982-.984-.983-1.5,0-2.484q2.172-2.178,4.347-4.352c.9-.9,1.451-.9,2.366.021.4.4.783.83,1.24,1.317.236-.222.42-.386.594-.56,1.615-1.615,3.219-3.242,4.843-4.848a13.654,13.654,0,0,1,19.9.463,1.374,1.374,0,0,0,1.138.481c4.045-.015,8.092.051,12.135-.032,2.32-.048,4.325.389,5.623,2.581.265-.252.471-.44.669-.637,2.99-2.993,5.965-6,8.974-8.976a5.644,5.644,0,0,1,9.556,2.9,5.55,5.55,0,0,1-1.694,5.245q-6.163,6.171-12.325,12.343a36.622,36.622,0,0,1-2.77,2.617,11.705,11.705,0,0,1-7.544,2.649c-5.679.006-11.36.079-17.036-.037a5.794,5.794,0,0,0-5.3,2.7c.483.43,1.047.88,1.548,1.392a1.208,1.208,0,0,1,.009,1.865c-1.77,1.783-3.567,3.54-5.353,5.307Zm3.038-10.643c-.028.011.03,0,.064-.028.261-.252.53-.5.774-.767a6.854,6.854,0,0,1,5.461-2.3c5.808.06,11.616.026,17.424.018a9.448,9.448,0,0,0,6.869-2.622c4.864-4.789,9.665-9.641,14.479-14.481a2.927,2.927,0,0,0,.857-2.639,2.962,2.962,0,0,0-2.084-2.488,3.1,3.1,0,0,0-3.353.828q-5.176,5.175-10.332,10.37a2.242,2.242,0,0,0-.515,1,4.908,4.908,0,0,1-4.506,3.776c-5.886.033-11.772.012-17.658.017a1.227,1.227,0,0,1-1.238-.761c-.388-.886.247-1.726,1.323-1.727q6.184-.01,12.369,0c1.608,0,3.216.019,4.823-.009a2.431,2.431,0,0,0,2.3-1.457,2.329,2.329,0,0,0-.3-2.559,2.638,2.638,0,0,0-2.265-.974c-4.589.009-9.179-.014-13.768.021a2.325,2.325,0,0,1-2-.912,11.139,11.139,0,0,0-16.59-.74c-.628.62-1.247,1.249-1.871,1.873l-3.4,3.4,13.139,13.168M3.2,215.322l17.985,18.016,2.978-2.979L6.191,212.328,3.2,215.322" transform="translate(0 -156.73)" fill="#fff"/>
  </g>
</svg>
