<svg xmlns="http://www.w3.org/2000/svg" xmlns:xlink="http://www.w3.org/1999/xlink" width="76.245" height="79.828" viewBox="0 0 76.245 79.828">
  <defs>
    <clipPath id="clip-path">
      <rect id="Rectangle_55" data-name="Rectangle 55" width="76.245" height="79.828" fill="#fff"/>
    </clipPath>
  </defs>
  <g id="Group_322" data-name="Group 322" transform="translate(0)">
    <g id="Group_321" data-name="Group 321" transform="translate(0)" clip-path="url(#clip-path)">
      <path id="Path_315" data-name="Path 315" d="M75.731,173.215c-1.4-.251-2.82-.415-4.193-.767-9.727-2.493-16.444-8.463-19.753-17.911a27.638,27.638,0,1,1,31.6,18.15c-1.087.224-2.194.354-3.291.528Zm2.2-2.258a25.384,25.384,0,1,0-25.422-25.4,25.426,25.426,0,0,0,25.422,25.4" transform="translate(-39.79 -93.387)" fill="#fff"/>
      <path id="Path_316" data-name="Path 316" d="M143.287,0a8.555,8.555,0,0,1,.78,1.376c.573,1.638,1.1,3.292,1.608,4.952a.8.8,0,0,0,.919.685c1.818-.044,3.637-.014,5.456-.033.644-.007,1.214.09,1.441.787s-.218,1.112-.724,1.477c-1.64,1.185-3.278,2.373-4.96,3.592l1.78,5.461c.056.172.119.343.172.516a1.191,1.191,0,0,1-.347,1.473,1.168,1.168,0,0,1-1.5-.121c-1.506-1.108-3.034-2.187-4.521-3.319a.788.788,0,0,0-1.14.006c-1.448,1.1-2.931,2.151-4.393,3.23-.513.378-1.038.643-1.628.2s-.49-1.017-.289-1.622c.634-1.917,1.252-3.84,1.9-5.824l-4.648-3.37c-.21-.152-.5-.265-.609-.471a2.383,2.383,0,0,1-.4-1.227c.06-.531.54-.782,1.1-.78,1.793.006,3.588-.043,5.378.033a1.194,1.194,0,0,0,1.433-1.062c.427-1.573.962-3.118,1.505-4.657a7.836,7.836,0,0,1,.757-1.3ZM142.9,5.079l-.175.026c-.275.833-.555,1.665-.825,2.5-.521,1.61-.519,1.611-2.234,1.611h-2.713a21.074,21.074,0,0,0,2.368,1.9c1.094.793,1.138.936.728,2.2-.311.961-.615,1.925-.982,3.079,1.037-.755,1.893-1.382,2.754-2s1.14-.631,2.009,0,1.73,1.262,2.767,2.019c-.411-1.245-.724-2.282-1.1-3.3a1.393,1.393,0,0,1,.617-1.857c.895-.6,1.746-1.256,2.616-1.888a20.109,20.109,0,0,0-3.372-.144A1.312,1.312,0,0,1,143.9,8.141c-.3-1.029-.661-2.042-1-3.061" transform="translate(-104.695)" fill="#fff"/>
      <path id="Path_317" data-name="Path 317" d="M279.294,54.277c.656,2.019,1.311,3.982,1.92,5.959a1.769,1.769,0,0,1-.006,1.109c-.29.7-1.048.808-1.77.29-1.582-1.134-3.147-2.29-4.72-3.437-.124-.091-.252-.176-.414-.29-1.664,1.211-3.308,2.427-4.98,3.6a1.991,1.991,0,0,1-1.119.411c-.751-.033-1.112-.8-.836-1.666.556-1.752,1.109-3.506,1.725-5.237a.872.872,0,0,0-.395-1.21c-1.494-1.032-2.942-2.132-4.425-3.18a1.215,1.215,0,0,1-.629-1.444c.209-.632.74-.782,1.374-.774,1.818.023,3.636-.02,5.453.027a.869.869,0,0,0,1.014-.759c.509-1.712,1.09-3.4,1.625-5.106.193-.614.481-1.138,1.194-1.136s1,.513,1.195,1.133c.527,1.68,1.131,3.337,1.6,5.031.2.7.513.856,1.184.837,1.739-.049,3.479-.009,5.219-.024.634-.005,1.211.057,1.452.76.255.746-.207,1.161-.736,1.542-1.62,1.167-3.237,2.337-4.929,3.558M268.52,50.7l-.041.174c.851.618,1.687,1.259,2.558,1.848a1.38,1.38,0,0,1,.6,1.8c-.369,1.041-.692,2.1-1.092,3.324,1.034-.748,1.933-1.357,2.783-2.028a1.412,1.412,0,0,1,1.965-.01c.831.643,1.7,1.242,2.546,1.86a18.3,18.3,0,0,0-.854-3.178,1.322,1.322,0,0,1,.559-1.739c.889-.605,1.744-1.26,2.614-1.893A19.046,19.046,0,0,0,277.1,50.7c-1.123.008-1.412-.188-1.758-1.243-.329-1-.651-2.006-1.036-3.194-.386,1.172-.709,2.146-1.028,3.12-.378,1.156-.63,1.328-1.854,1.313-.969-.012-1.939,0-2.908,0" transform="translate(-208.786 -32.825)" fill="#fff"/>
      <path id="Path_318" data-name="Path 318" d="M10.733,57.9c-1.645,1.2-3.242,2.352-4.83,3.519-.539.4-1.074.815-1.749.326-.7-.506-.476-1.168-.255-1.831.564-1.695,1.093-3.4,1.678-5.088a.647.647,0,0,0-.291-.891C3.777,52.876,2.293,51.783.8,50.705c-.5-.363-.959-.75-.744-1.468.225-.753.82-.828,1.487-.822,1.818.016,3.636-.015,5.453.022a.748.748,0,0,0,.87-.624c.549-1.781,1.148-3.547,1.7-5.327.189-.608.512-1.053,1.175-1.048s.98.485,1.167,1.074c.566,1.776,1.16,3.544,1.7,5.327a.7.7,0,0,0,.812.595c1.87-.027,3.74,0,5.609-.021.637-.008,1.161.155,1.362.789a1.232,1.232,0,0,1-.648,1.441c-1.44,1.019-2.836,2.1-4.3,3.083a1.046,1.046,0,0,0-.458,1.467c.585,1.632,1.091,3.293,1.645,4.937.206.61.27,1.18-.316,1.61s-1.113.156-1.624-.221c-1.629-1.2-3.268-2.388-4.956-3.618m3.761-.048c-.346-1.069-.628-1.949-.916-2.826-.521-1.587-.507-1.628.873-2.624.713-.515,1.423-1.034,2.134-1.552a21.906,21.906,0,0,0-3.112-.147c-1.064,0-1.364-.208-1.694-1.219s-.657-2.008-1.054-3.22c-.284.88-.484,1.545-.712,2.2-.743,2.127-.349,2.3-3.056,2.225-.672-.018-1.344,0-2.017,0a13.813,13.813,0,0,0,2,1.668c1.463,1.065,1.467,1.076.9,2.817q-.4,1.217-.8,2.433A22.8,22.8,0,0,0,9.7,55.861c.861-.626,1.2-.629,2.078.009.852.618,1.7,1.243,2.712,1.983" transform="translate(0 -32.824)" fill="#fff"/>
      <path id="Path_319" data-name="Path 319" d="M118.778,163.344a23,23,0,1,1-23.071-22.987,22.978,22.978,0,0,1,23.071,22.987M95.8,184.1a20.724,20.724,0,1,0-20.758-20.68A20.771,20.771,0,0,0,95.8,184.1" transform="translate(-57.656 -111.179)" fill="#fff"/>
      <path id="Path_320" data-name="Path 320" d="M139.252,182.036c1.48,0,2.85,0,4.219,0,.623,0,1.248-.01,1.871.014a4.21,4.21,0,0,1,4.066,5.113c-.693,3.482-1.419,6.957-2.147,10.432a4.259,4.259,0,0,1-4.38,3.459q-6.9.017-13.8-.007a1.28,1.28,0,0,0-1.257.645,3.035,3.035,0,0,1-3.464,1.3,3.47,3.47,0,0,1-2.48-3.322c-.037-2.182-.014-4.365-.014-6.548,0-3.17-.026-6.341.011-9.51a3.338,3.338,0,0,1,4.624-3.225,3.178,3.178,0,0,1,1.409,1.15,1.177,1.177,0,0,0,1.461.5c.284-.063.576-.453.71-.762.835-1.926,1.624-3.872,2.433-5.809.85-2.035,2.016-2.943,3.7-2.895a4.726,4.726,0,0,1,3.9,3.254A6.094,6.094,0,0,1,140,179.5c-.223.815-.478,1.621-.751,2.538M128.6,184.4v14.316a2.849,2.849,0,0,0,.337.044c4.728,0,9.456.009,14.184,0A1.936,1.936,0,0,0,145.087,197c.684-3.3,1.367-6.6,2.031-9.9.375-1.869-.429-2.83-2.338-2.834-2.26-.006-4.52,0-6.781,0-1.324,0-1.73-.581-1.323-1.828.4-1.23.829-2.456,1.158-3.706a3.362,3.362,0,0,0-.447-3.115c-.926-1.174-2.029-1.035-2.615.349-.919,2.171-1.853,4.337-2.728,6.526a2.557,2.557,0,0,1-2.309,1.787c-.361.031-.721.078-1.131.123m-2.295,7.165h-.037c0-2.647,0-5.295,0-7.942,0-.775-.358-1.207-.982-1.25-.6-.041-1.023.387-1.115,1.144a6.41,6.41,0,0,0-.04.776q0,7.28,0,14.561a6.027,6.027,0,0,0,.048.854c.088.613.332,1.143,1.054,1.109.684-.032.954-.551,1.059-1.156a4.167,4.167,0,0,0,.016-.7q0-3.7,0-7.4" transform="translate(-96.528 -136.695)" fill="#fff"/>
    </g>
  </g>
</svg>
