<svg xmlns="http://www.w3.org/2000/svg" xmlns:xlink="http://www.w3.org/1999/xlink" width="70.15" height="77.125" viewBox="0 0 70.15 77.125">
  <defs>
    <clipPath id="clip-path">
      <rect id="Rectangle_53" data-name="Rectangle 53" width="70.15" height="77.125" fill="#fff"/>
    </clipPath>
  </defs>
  <g id="Group_318" data-name="Group 318" transform="translate(0)">
    <g id="Group_317" data-name="Group 317" transform="translate(0)" clip-path="url(#clip-path)">
      <path id="Path_305" data-name="Path 305" d="M12.259,236.5c1.565-.586,3.006-1.256,4.517-1.667a15.529,15.529,0,0,1,14.033,2.832,9.573,9.573,0,0,0,6.406,2.144c2.1-.088,4.208-.021,6.312-.018,3.8.006,6.132,2.66,5.661,6.427a1.984,1.984,0,0,0,.014.284l7.628-2.727c2-.715,4-1.443,6-2.141a5.39,5.39,0,0,1,4.579,9.725,78.438,78.438,0,0,1-23.539,9.3,32.994,32.994,0,0,1-19.563-1.462,39.563,39.563,0,0,0-9.754-2.523c-.717-.081-1.442-.09-2.25-.138-.019.343-.031.617-.051.89a2.4,2.4,0,0,1-2.448,2.417c-2.467.039-4.936.043-7.4,0A2.358,2.358,0,0,1,0,257.318Q0,246.328,0,235.339a2.394,2.394,0,0,1,2.59-2.563q3.507-.014,7.014,0a2.447,2.447,0,0,1,2.65,2.606c.009.36,0,.721,0,1.117m0,17.843c.881.06,1.681.09,2.475.175a43.409,43.409,0,0,1,10.721,2.8,30.053,30.053,0,0,0,15.68,1.658,69.5,69.5,0,0,0,12.134-3.288,71.427,71.427,0,0,0,12.992-6.126A3.265,3.265,0,0,0,63.38,243.7c-5.391,1.926-10.773,3.878-16.17,5.788a12.781,12.781,0,0,1-3.491.948c-2.825.139-5.662.052-8.494.042-.854,0-1.354-.415-1.368-1.068-.015-.668.508-1.083,1.409-1.087,2.156-.008,4.313,0,6.469-.007a18.769,18.769,0,0,0,2.564-.09,3.1,3.1,0,0,0,2.8-3.486,3.142,3.142,0,0,0-3.279-2.792c-2.338-.007-4.677-.034-7.015.006a10.5,10.5,0,0,1-6.8-2.241c-5.469-4.219-11.176-4.264-17.085-.987a1.141,1.141,0,0,0-.671,1.158c.024,4.546.014,9.093.014,13.64ZM2.226,234.935a3.289,3.289,0,0,0-.064.407q0,10.865-.015,21.73c0,.544.227.642.7.638,2.077-.018,4.154-.007,6.231-.008,1.034,0,1.035,0,1.035-1.006q0-10.4,0-20.8c0-.156.057-.349-.015-.459-.127-.2-.329-.483-.5-.486-2.436-.032-4.873-.021-7.371-.021" transform="translate(0 -184.381)" fill="#fff"/>
      <path id="Path_306" data-name="Path 306" d="M134.168,15.87c-1.429-3.014-.62-4.783,2.867-6.262q-1.075-3.475-2.153-6.96c-.115-.371-.246-.738-.351-1.111-.153-.542-.141-1.14.428-1.34a1.735,1.735,0,0,1,1.335.169,21.624,21.624,0,0,1,2.078,1.7c.684-.576,1.339-1.119,1.984-1.675a1.179,1.179,0,0,1,1.736-.006c.644.561,1.309,1.1,2,1.678.627-.526,1.243-1.041,1.856-1.558.786-.663,1.2-.669,1.973-.026l1.9,1.584C150.5,1.5,151.179.95,151.843.382a1.119,1.119,0,0,1,1.423-.209,1.1,1.1,0,0,1,.4,1.433c-.845,2.666-1.661,5.342-2.506,8.073A4.161,4.161,0,0,1,154.365,12a3.73,3.73,0,0,1-.24,3.68,62.878,62.878,0,0,1,4.98,3.947,21.388,21.388,0,0,1-.663,31.218,6.4,6.4,0,0,1-4.228,1.747c-4.1.052-8.209.04-12.313.046-2.52,0-5.04.007-7.56-.017a6.782,6.782,0,0,1-4.662-1.862,20.458,20.458,0,0,1-6.886-13.881c-.653-9.235,3.186-16.16,11.144-20.836.066-.039.124-.09.231-.168m9.888,34.648q4.558,0,9.116,0a5.666,5.666,0,0,0,4.065-1.455,19.311,19.311,0,0,0-2.488-30.252,6.9,6.9,0,0,0-4.355-1.378c-4.2.2-8.411.066-12.618.061-.336,0-.672-.072-1.006-.059a2.876,2.876,0,0,0-1.1.146,19.3,19.3,0,0,0-5.157,31.031,6.2,6.2,0,0,0,4.666,1.913c2.96-.031,5.921-.008,8.882-.008M141.319,2.545c-1.31.52-1.853,2.259-3.615,1.94l1.626,5.235c3.083,0,6.121.006,9.158-.015a.644.644,0,0,0,.481-.348c.531-1.613,1.027-3.238,1.541-4.883-1.782.356-2.307-1.437-3.635-1.917-.609.508-1.276,1.04-1.915,1.605a1.159,1.159,0,0,1-1.73,0c-.644-.561-1.3-1.106-1.911-1.62m2.816,12.794q3.2,0,6.39,0c1.247,0,2.04-.692,2.034-1.753a1.755,1.755,0,0,0-1.977-1.722q-6.468-.012-12.937,0c-1.239,0-1.967.647-1.979,1.7-.013,1.082.756,1.768,2,1.771,2.156,0,4.312,0,6.468,0" transform="translate(-97.21 0)" fill="#fff"/>
      <path id="Path_307" data-name="Path 307" d="M184.813,106.445c-.05.339-.108.987-.251,1.617a1.367,1.367,0,0,0,.432,1.4,14.4,14.4,0,0,1,1.385,1.472,2.435,2.435,0,0,1-.06,3.338,15.693,15.693,0,0,1-1.3,1.345,1.424,1.424,0,0,0-.457,1.468,10.191,10.191,0,0,1,.239,1.924,2.391,2.391,0,0,1-1.961,2.61,11.451,11.451,0,0,1-1.758.312,1.5,1.5,0,0,0-1.314.932,12.625,12.625,0,0,1-1.026,1.827,2.307,2.307,0,0,1-2.884.873,9.056,9.056,0,0,1-1.546-.722,1.814,1.814,0,0,0-2.1-.009,7.685,7.685,0,0,1-1.545.722,2.355,2.355,0,0,1-2.989-.966,14.6,14.6,0,0,1-.958-1.777,1.46,1.46,0,0,0-1.269-.876,13.072,13.072,0,0,1-1.758-.309,2.393,2.393,0,0,1-1.987-2.665c.031-.671.222-1.339.214-2.006a2.3,2.3,0,0,0-.4-1.243c-.39-.542-.954-.955-1.37-1.482a2.461,2.461,0,0,1-.031-3.286,4.91,4.91,0,0,1,.955-1.02,2.072,2.072,0,0,0,.786-2.465,3.26,3.26,0,0,1-.088-.379c-.363-2.261.36-3.4,2.634-3.681a3.229,3.229,0,0,0,2.875-2.133c.87-1.961,2.223-2.337,4.131-1.4a5.788,5.788,0,0,1,.687.363,1.914,1.914,0,0,0,2.319.01,6.886,6.886,0,0,1,1.038-.529,2.529,2.529,0,0,1,3.618,1.194,7.623,7.623,0,0,1,.6,1.178,1.753,1.753,0,0,0,1.666,1.168,9,9,0,0,1,1.527.271c1.374.386,1.962,1.2,1.947,2.921m-2.093-.4a2.8,2.8,0,0,0-.625-.469,2.958,2.958,0,0,0-.914-.163,3.9,3.9,0,0,1-3.48-2.452c-.873-1.889-.67-1.642-2.31-.775a3.926,3.926,0,0,1-3.982.137c-1.77-.947-1.81-.92-2.734.917a3.415,3.415,0,0,1-2.8,2.071c-.488.054-.968.183-1.456.245-.453.057-.647.271-.569.731a6.789,6.789,0,0,0,.08.7,4.037,4.037,0,0,1-1.567,4.675,1.584,1.584,0,0,0-.168.162c-.677.694-.74.9.019,1.5a4.463,4.463,0,0,1,1.683,5.1c-.027.1-.028.207-.056.306-.159.563.087.877.634.893a4.754,4.754,0,0,1,4.783,3.475c.176.521.562.632,1.047.333.176-.108.383-.167.554-.281a4.137,4.137,0,0,1,4.871.018c1.139.707,1.183.635,1.783-.54a1.363,1.363,0,0,0,.074-.137,3.959,3.959,0,0,1,3.758-2.746c1.445-.107,1.491-.269,1.221-1.717-.043-.229-.053-.464-.1-.692a3.34,3.34,0,0,1,1.19-3.342c.29-.259.546-.556.834-.818a.7.7,0,0,0-.013-1.183c-.379-.354-.741-.727-1.1-1.1a3.132,3.132,0,0,1-.932-2.909c.1-.56.163-1.128.276-1.935" transform="translate(-126.35 -78.718)" fill="#fff"/>
      <path id="Path_308" data-name="Path 308" d="M210.265,129.347c.968-.034,1.521.681,1.294,1.363a2.706,2.706,0,0,1-.328.612q-3.674,5.584-7.355,11.164a2.387,2.387,0,0,1-.376.492,1,1,0,0,1-1.348.1.984.984,0,0,1-.333-1.307,4.7,4.7,0,0,1,.361-.6q3.612-5.484,7.236-10.96a5.462,5.462,0,0,1,.849-.864" transform="translate(-159.769 -102.456)" fill="#fff"/>
      <path id="Path_309" data-name="Path 309" d="M233.985,169.391a3.2,3.2,0,1,1,.1-6.394,3.2,3.2,0,1,1-.1,6.394m1.1-3.213a1.052,1.052,0,1,0-1.074,1.061,1.012,1.012,0,0,0,1.074-1.061" transform="translate(-182.85 -129.113)" fill="#fff"/>
      <path id="Path_310" data-name="Path 310" d="M189.5,135.136a3.194,3.194,0,0,1,3.211-3.206,3.227,3.227,0,0,1,3.213,3.217,3.263,3.263,0,0,1-3.226,3.22,3.225,3.225,0,0,1-3.2-3.231m3.231-1.045a1.061,1.061,0,1,0,1.033,1.05,1.055,1.055,0,0,0-1.033-1.05" transform="translate(-150.109 -104.504)" fill="#fff"/>
    </g>
  </g>
</svg>
