<svg xmlns="http://www.w3.org/2000/svg" xmlns:xlink="http://www.w3.org/1999/xlink" id="Group_430" data-name="Group 430" width="68" height="68" viewBox="0 0 68 68">
  <defs fill="#571515">
    <clipPath id="clip-path" fill="#571515">
      <rect id="Rectangle_140" data-name="Rectangle 140" width="68" height="68" fill="#004d40"/>
    </clipPath>
  </defs>
  <g id="Group_429" data-name="Group 429" clip-path="url(#clip-path)">
    <path id="Path_19544" data-name="Path 19544" d="M42.8,68.26H2.8a3.916,3.916,0,0,1-2.8-2.8V7.066a1.546,1.546,0,0,0,.115-.3,7.959,7.959,0,0,1,3.193-5.24A10.1,10.1,0,0,1,6.933,0H52.262c.055.033.108.089.167.1A8.076,8.076,0,0,1,59.2,8.469c-.079,4.241-.015,8.486-.017,12.729a3.487,3.487,0,0,1-3.839,3.841q-4.532,0-9.064,0c-.234,0-.469.019-.7.03V39.708c.357-.39.626-.681.891-.976q5.9-6.569,11.8-13.135a5.432,5.432,0,0,1,5.664-1.78,5.511,5.511,0,0,1,4.186,4.294,1.662,1.662,0,0,0,.132.286v1.733a8.7,8.7,0,0,1-2.4,4.058q-9.991,11.074-19.926,22.2a1.743,1.743,0,0,0-.4,1.05c-.035,2.4-.025,4.794-.016,7.192a3.381,3.381,0,0,1-1.493,3.022,9.867,9.867,0,0,1-1.234.61M35.381,52.337H7.544a7.288,7.288,0,0,1-.8-.025,1.051,1.051,0,0,1-1-.911,1.008,1.008,0,0,1,.672-1.23c.407-.134.426-.362.423-.691-.009-.844-.022-1.689,0-2.533a1.418,1.418,0,0,0-.407-.976,3.992,3.992,0,0,1-.689-1.525A12.983,12.983,0,0,1,5.7,42.851a1.585,1.585,0,0,0-.309-.819,3.359,3.359,0,0,1,.975-5.184.786.786,0,0,0,.472-.824q-.026-3.1-.005-6.2A4.537,4.537,0,0,1,11.6,25.042q2.633-.015,5.266,0a4.507,4.507,0,0,1,4.756,4.771c.009,2.044.013,4.089-.007,6.133a.868.868,0,0,0,.532.92,3.3,3.3,0,0,1,1.128,4.865,2.289,2.289,0,0,0-.495,1.639c.017.243,0,.489,0,.733a2.445,2.445,0,0,1-.9,2.059.609.609,0,0,0-.246.36c-.019,1.149-.011,2.3-.011,3.488h3.429c0-.794-.013-1.545,0-2.3A3.348,3.348,0,0,1,27.581,44.5c.271-.074.551-.118.836-.178v-17c-1.076,0-2.115.01-3.153,0a2.3,2.3,0,0,1-2.292-3.22q1.31-3.772,2.655-7.531A2.374,2.374,0,0,1,28.142,14.8q3.7-.007,7.4,0a2.375,2.375,0,0,1,2.6,1.834q1.288,3.638,2.565,7.28c.7,1.988-.311,3.4-2.428,3.4-.971,0-1.942,0-2.928,0V44.346A3.571,3.571,0,0,1,38.7,47.378c1.386-1.54,2.693-3.021,4.037-4.466a1.832,1.832,0,0,0,.511-1.367q-.02-16.565-.017-33.13a8.375,8.375,0,0,1,2.137-5.858c.053-.058.094-.128.209-.287H8.638c-.289,0-.578,0-.866.008A5.666,5.666,0,0,0,2.378,7.11a8.532,8.532,0,0,0-.091,1.26q-.006,28,0,55.994c0,1.2.364,1.624,1.419,1.624q19.065,0,38.129,0c1.01,0,1.4-.4,1.406-1.42.008-1.822,0-3.644,0-5.466a4.247,4.247,0,0,0-.06-.5,1.662,1.662,0,0,0-.248.068q-4.3,2.118-8.593,4.242c-.135.067-.24.2-.376.261a3.34,3.34,0,0,1-1.216.52c-6.266.033-12.532.025-18.8.022-.881,0-1.418-.451-1.411-1.155s.521-1.113,1.435-1.115q3.1-.005,6.2,0c3.755,0,7.51.005,11.265-.013.237,0,.625-.129.688-.294,1.093-2.879,2.146-5.774,3.257-8.8M45.558,22.693a1.257,1.257,0,0,0,.246.063c3.287,0,6.573.015,9.86,0A1.137,1.137,0,0,0,56.9,21.493c.009-4.575.059-9.15-.023-13.724a5.62,5.62,0,0,0-5.65-5.5,5.7,5.7,0,0,0-5.706,5.994c-.016,4.6,0,9.194,0,13.791,0,.215.023.43.035.635M43.831,55.3,59.791,37.525l-5.08-4.56L38.752,50.739,43.831,55.3M19.348,32.853c0-1.044.007-2.088,0-3.132a2.235,2.235,0,0,0-2.416-2.4q-2.665-.014-5.331,0a2.258,2.258,0,0,0-2.483,2.418q-.031,3.2.012,6.4a1.2,1.2,0,0,0,.389.653,20.481,20.481,0,0,1,1.46,1.5.8.8,0,0,0,.737.4q2.532-.019,5.064,0a.782.782,0,0,0,.724-.408,6.69,6.69,0,0,1,1.431-1.433.825.825,0,0,0,.42-.788c-.016-1.066-.006-2.132-.006-3.2M25.065,25H38.532a1.213,1.213,0,0,0-.017-.293c-.835-2.432-1.667-4.866-2.533-7.287a.76.76,0,0,0-.593-.333c-2.309-.027-4.619-.009-6.929-.036a.659.659,0,0,0-.741.547c-.564,1.635-1.165,3.256-1.751,4.883-.3.829-.595,1.659-.9,2.52M61.333,35.85c1.406-1.608,2.85-3.112,4.116-4.754a3.369,3.369,0,0,0-4.982-4.428c-1.484,1.445-2.824,3.038-4.248,4.592l5.114,4.59m-28.368-8.5H30.8v17h2.168ZM20.47,43.255a3.589,3.589,0,0,1-3.089-2.041.607.607,0,0,0-.455-.255q-2.7-.026-5.392,0a.552.552,0,0,0-.424.215,3.56,3.56,0,0,1-3.074,2.087v1.083H20.47ZM36.41,50c0-.807.019-1.516-.006-2.224A1.067,1.067,0,0,0,35.26,46.66c-2.263-.015-4.526-.008-6.79,0a.974.974,0,0,0-1.073.81A23.284,23.284,0,0,0,27.372,50Zm5.5,6.626L37.631,52.8,34.98,60.052l6.927-3.423M15.025,46.682H13.461l-.667,3.325H15.68l-.655-3.325M9.153,50.052a6.5,6.5,0,0,0,.9-.011c.165-.024.427-.132.453-.246.231-1.02.418-2.05.626-3.113H9.153ZM19.317,46.7H17.344c.17.836.328,1.615.487,2.394.2.993.2.994,1.216.947a1.857,1.857,0,0,0,.27-.055Zm2.295-6.8a1.132,1.132,0,0,0-1.043-1.225,1.164,1.164,0,0,0-1.209,1.077,1.141,1.141,0,0,0,1.029,1.176,1.1,1.1,0,0,0,1.223-1.029M8.047,38.682a1.159,1.159,0,0,0-1.2,1.085,1.135,1.135,0,0,0,1.033,1.17A1.1,1.1,0,0,0,9.095,39.9a1.126,1.126,0,0,0-1.048-1.218" fill="#004d40"/>
    <path id="Path_19545" data-name="Path 19545" d="M52.171,27.822H40.247a6.486,6.486,0,0,1-.666-.012,1.1,1.1,0,0,1-1.021-1.047,1.066,1.066,0,0,1,.822-1.146,2.963,2.963,0,0,1,.791-.065q12.025,0,24.049,0a4.39,4.39,0,0,1,.6.016,1.13,1.13,0,0,1,1.018,1.19,1.1,1.1,0,0,1-1.076,1.058c-.2.016-.4.008-.6.008H52.171" transform="translate(-31.705 -21.006)" fill="#004d40"/>
    <path id="Path_19546" data-name="Path 19546" d="M35.04,345.644c.555,0,1.11-.015,1.665,0a1.125,1.125,0,0,1,.062,2.249c-1.153.038-2.309.035-3.463,0a1.128,1.128,0,1,1,.071-2.254c.554-.017,1.11,0,1.665,0" transform="translate(-26.471 -284.197)" fill="#004d40"/>
    <path id="Path_19547" data-name="Path 19547" d="M207.177,27.784c-.4,0-.8.021-1.2,0a1.125,1.125,0,0,1-1.083-1.061,1.1,1.1,0,0,1,.969-1.165,20,20,0,0,1,2.593,0,1.059,1.059,0,0,1,.966,1.154,1.072,1.072,0,0,1-1.05,1.074c-.4.027-.8,0-1.2.006" transform="translate(-168.473 -20.975)" fill="#004d40"/>
  </g>
</svg>