<svg xmlns="http://www.w3.org/2000/svg" xmlns:xlink="http://www.w3.org/1999/xlink" id="Group_438" data-name="Group 438" width="69.278" height="69.302" viewBox="0 0 69.278 69.302">
  <defs fill="#000000">
    <clipPath id="clip-path" fill="#000000">
      <rect id="Rectangle_146" data-name="Rectangle 146" width="69.278" height="69.302" fill="#004d40"/>
    </clipPath>
  </defs>
  <g id="Group_437" data-name="Group 437" clip-path="url(#clip-path)">
    <path id="Path_19557" data-name="Path 19557" d="M46.272,0a23.437,23.437,0,0,1,2.943.938,9.791,9.791,0,0,1,5.46,6.434c.044.15.1.3.172.5h.794c3.766,0,7.531-.009,11.3,0a2.166,2.166,0,1,1,.026,4.322q-5.649.01-11.3,0h-.833A10.221,10.221,0,0,1,50.5,18.465a9.818,9.818,0,0,1-5.619,1.662A10.226,10.226,0,0,1,35.072,12.2h-.849c-10.508,0-21.015-.013-31.523.017A2.553,2.553,0,0,1,0,10.553V9.471A2.733,2.733,0,0,1,2.878,7.855c10.45.031,20.9.017,31.349.017H35.1c.073-.222.133-.388.182-.557A9.571,9.571,0,0,1,40,1.327,25.627,25.627,0,0,1,43.566,0Zm-1.3,4.311A5.747,5.747,0,1,0,45,15.8a5.747,5.747,0,0,0-.033-11.493" fill="#004d40"/>
    <path id="Path_19558" data-name="Path 19558" d="M0,281.441a2.533,2.533,0,0,1,2.7-1.666c10.551.031,21.1.012,31.652.033.61,0,.825-.178.991-.762a10.063,10.063,0,0,1,19.3.052c.062.215.123.431.2.695h.815c3.81,0,7.62-.006,11.43.007a2.154,2.154,0,0,1,2.162,1.772,2.129,2.129,0,0,1-1.3,2.35,3.706,3.706,0,0,1-1.255.192c-3.7.014-7.395.008-11.092.008h-.723a10.13,10.13,0,0,1-19.765,0h-.842c-10.46,0-20.921-.014-31.381.018A2.769,2.769,0,0,1,0,282.524Zm44.992,6.242a5.747,5.747,0,1,0-5.762-5.734,5.752,5.752,0,0,0,5.762,5.734" transform="translate(0 -222.721)" fill="#004d40"/>
    <path id="Path_19559" data-name="Path 19559" d="M0,145.384a2.624,2.624,0,0,1,2.79-1.643c3.629.055,7.26.019,10.891.019h.726a10.143,10.143,0,0,1,19.791,0H66.644a5.161,5.161,0,0,1,.81.028,2.162,2.162,0,0,1-.192,4.292c-.247.019-.5.008-.744.008H34.158a10.182,10.182,0,0,1-4.221,6.178A9.91,9.91,0,0,1,24.273,156a10.226,10.226,0,0,1-9.862-7.909H10.3c-2.5,0-5.007-.047-7.508.019A2.62,2.62,0,0,1,0,146.467Zm24.211,6.28a5.74,5.74,0,1,0-5.663-5.848,5.744,5.744,0,0,0,5.663,5.848" transform="translate(0 -111.289)" fill="#004d40"/>
  </g>
</svg>