<svg xmlns="http://www.w3.org/2000/svg" xmlns:xlink="http://www.w3.org/1999/xlink" id="Group_426" data-name="Group 426" width="86.407" height="86.332" viewBox="0 0 86.407 86.332">
  <defs fill="#000000">
    <clipPath id="clip-path" fill="#000000">
      <rect id="Rectangle_138" data-name="Rectangle 138" width="86.407" height="86.332" fill="#004d40"/>
    </clipPath>
  </defs>
  <g id="Group_425" data-name="Group 425" clip-path="url(#clip-path)">
    <path id="Path_19539" data-name="Path 19539" d="M36.772,0c1.742.276,3.512.434,5.221.845C52.708,3.422,60.677,9.586,65.514,19.5c4.925,10.094,4.637,20.292-.156,30.378a31.278,31.278,0,0,1-5.43,7.853L65,62.722c.849-.866,1.742-1.8,2.659-2.706s1.622-.927,2.537-.014c4.657,4.645,9.324,9.281,13.95,13.955a7.163,7.163,0,0,1-9.092,11.03,13.848,13.848,0,0,1-1.328-1.168q-6.718-6.7-13.422-13.41c-1.271-1.271-1.274-1.784.029-3.068.836-.824,1.7-1.62,2.5-2.379l-5.013-5c-1.218.929-2.5,1.98-3.851,2.921a33.172,33.172,0,0,1-15.2,5.762,33.426,33.426,0,0,1-26.1-7.6A33.625,33.625,0,0,1,.316,38.588C.2,37.7.1,36.815,0,35.929V33.061c.138-1.195.237-2.4.42-3.584A34.066,34.066,0,0,1,9.612,10.726,33.962,33.962,0,0,1,27.91.664C29.333.379,30.781.218,32.218,0ZM34.524,66.121A31.64,31.64,0,1,0,2.87,34.459,31.753,31.753,0,0,0,34.524,66.121m32.888,6.95c3.047,3.166,6.105,6.417,9.258,9.573a3.629,3.629,0,0,0,3.568.754,4.325,4.325,0,0,0,1.975-7.379c-2.627-2.7-5.324-5.329-7.977-8a8.939,8.939,0,0,1-.767-1l-6.057,6.056m-4.4-4.291,2.022,2.262,6.012-6.006-2.136-2.176-5.9,5.92" fill="#004d40"/>
    <path id="Path_19540" data-name="Path 19540" d="M90.042,60.842a28.856,28.856,0,1,1-28.9-28.823,28.939,28.939,0,0,1,28.9,28.823M61.229,34.822A26.027,26.027,0,1,0,87.2,60.89,26.152,26.152,0,0,0,61.229,34.822" transform="translate(-26.638 -26.382)" fill="#004d40"/>
    <path id="Path_19541" data-name="Path 19541" d="M139.411,119.357q0,4.551,0,9.1c0,1.354-.221,1.671-1.48,2.079-4.375,1.417-8.745,2.849-13.134,4.221a3.169,3.169,0,0,1-1.783-.008c-4.389-1.373-8.759-2.8-13.134-4.22-1.219-.395-1.48-.748-1.481-2q0-9.144,0-18.289c0-1.226.263-1.6,1.413-1.971,4.428-1.434,8.855-2.875,13.3-4.267a2.879,2.879,0,0,1,1.624.006c4.441,1.393,8.868,2.834,13.3,4.267,1.128.365,1.38.719,1.382,1.9q.006,4.593,0,9.186m-16.959,12.27a3.1,3.1,0,0,0,.058-.365c0-5.114,0-10.227.014-15.34a.686.686,0,0,0-.562-.775c-1.447-.448-2.886-.92-4.327-1.385-2.1-.679-4.2-1.359-6.4-2.069v1.014q0,6.49,0,12.98c0,.754-.226,1.7.138,2.209s1.332.584,2.046.816c2.983.971,5.969,1.929,9.029,2.915m2.917-.024c.328-.1.591-.17.849-.253,3.2-1.03,6.4-2.079,9.618-3.078a.915.915,0,0,0,.758-1.061c-.024-4.89-.013-9.78-.015-14.67,0-.247-.022-.494-.036-.8-.3.078-.539.13-.774.207-3.229,1.046-6.452,2.112-9.69,3.128a.914.914,0,0,0-.777,1.046c.025,4.89.014,9.78.016,14.67,0,.244.03.488.051.809m-10.685-21.944-.023.179c2.96.958,5.917,1.927,8.886,2.859a1.753,1.753,0,0,0,.973-.085c2.436-.768,4.863-1.558,7.294-2.342l1.6-.518c-2.6-.845-4.972-1.529-7.276-2.393a5.919,5.919,0,0,0-4.442-.006c-2.3.872-4.675,1.547-7.017,2.306" transform="translate(-89.313 -85.599)" fill="#004d40"/>
  </g>
</svg>