<?xml version="1.0" standalone="no"?>
<!DOCTYPE svg PUBLIC "-//W3C//DTD SVG 1.1//EN" "http://www.w3.org/Graphics/SVG/1.1/DTD/svg11.dtd" >
<svg xmlns="http://www.w3.org/2000/svg" xmlns:xlink="http://www.w3.org/1999/xlink" version="1.1">
<metadata>
Created by FontForge 20190801 at Thu May 26 10:13:04 2022
 By www-data
</metadata>
<defs>
<font id="alroalrobold700" horiz-adv-x="609" >
  <font-face 
    font-family="alroalrobold700"
    font-weight="700"
    font-stretch="normal"
    units-per-em="1000"
    panose-1="0 0 0 0 0 0 0 0 0 0"
    ascent="800"
    descent="-200"
    x-height="558"
    cap-height="730"
    bbox="-104 -282 1061 1017"
    underline-thickness="0"
    underline-position="0"
    unicode-range="U+000A-20AC"
  />
<missing-glyph horiz-adv-x="527" 
d="M50 700h427v-700h-427v700zM78 680l185 -309l186 309h-371zM251 350l-180 300v-601zM264 329l-185 -308h370zM276 350l181 -303v605z" />
    <glyph glyph-name=".notdef" horiz-adv-x="527" 
d="M50 700h427v-700h-427v700zM78 680l185 -309l186 309h-371zM251 350l-180 300v-601zM264 329l-185 -308h370zM276 350l181 -303v605z" />
    <glyph glyph-name=".null" horiz-adv-x="0" 
 />
    <glyph glyph-name=".null" horiz-adv-x="0" 
 />
    <glyph glyph-name="nonmarkingreturn" horiz-adv-x="333" 
 />
    <glyph glyph-name="controlLF" unicode="&#xa;" horiz-adv-x="0" 
 />
    <glyph glyph-name="controlCR" unicode="&#xd;" horiz-adv-x="0" 
 />
    <glyph glyph-name="space" unicode=" " horiz-adv-x="363" 
 />
    <glyph glyph-name="exclam" unicode="!" horiz-adv-x="233" 
d="M185 221h-139v509h139v-509zM115.5 5q-31.5 0 -54 22.5t-22.5 54t22.5 54t54 22.5t54 -22.5t22.5 -54t-22.5 -54t-54 -22.5z" />
    <glyph glyph-name="quotedbl" unicode="&#x22;" horiz-adv-x="373" 
d="M95 831q44 0 66 -38t1 -76l-67 -103h-77v140q0 32 22.5 54.5t54.5 22.5zM288 831q44 0 66 -38t1 -76l-67 -103h-77v140q0 32 22.5 54.5t54.5 22.5z" />
    <glyph glyph-name="numbersign" unicode="#" horiz-adv-x="691" 
d="M536 409h-14l-18 -86h120l-25 -120h-121l-20 -97l-5 -24h-121l26 121h-96l-21 -97l-5 -24h-120l25 121h-120l26 120h120l18 86h-120l26 121h120l10 46l15 72h120l-25 -118h96l10 46l15 72h121l-25 -118h120l-26 -121h-106zM383 323l19 86h-96l-19 -86h96z" />
    <glyph glyph-name="dollar" unicode="$" horiz-adv-x="636" 
d="M538 404q37 -36 54.5 -81.5t16 -89.5t-19 -86.5t-47 -75t-73 -52t-92.5 -20.5h-7v-114h-102v114h-217v143h320q35 0 59.5 19.5t29.5 47t-0.5 55.5t-30 47t-58.5 19h-138q-81 0 -137 51t-64 123q-12 91 48.5 158t149.5 67h38v115h102v-115h186v-143q-326 0 -330 -1
q-32 -2 -45.5 -28.5t-0.5 -53.5t46 -29h145q98 0 167 -70z" />
    <glyph glyph-name="percent" unicode="%" horiz-adv-x="751" 
d="M559.5 327q70.5 0 120.5 -50t50 -120t-50 -120t-120.5 -50t-120 50t-49.5 120t49.5 120t120 50zM560 80q32 0 54 22.5t22 54.5t-22.5 54.5t-53.5 22.5q-32 0 -54.5 -22.5t-22.5 -54.5t22.5 -54.5t54.5 -22.5zM191 403q-70 0 -120 50t-50 120t50 120t120 50t120 -50
t50 -120t-50 -120t-120 -50zM191 650q-32 0 -54.5 -22.5t-22.5 -54.5t23 -54.5t54 -22.5q32 0 54.5 22.5t22.5 54.5t-23 54.5t-54 22.5zM714 730l-9 -11l-534 -719h-133l543 730h133z" />
    <glyph glyph-name="ampersand" unicode="&#x26;" horiz-adv-x="693" 
d="M267 145h378v-145h-207h-17h-38h-43h-42q-51 0 -78 5q-23 5 -45 14q-43 18 -77 51q-39 39 -56.5 90t-13 99.5t27.5 91.5q21 37 51 66q-37 50 -37 115q0 82 58 140t139 58h157q81 0 139 -58t58 -140q0 -65 -37 -115q31 -29 51 -66q28 -51 28 -112h-144q0 39 -28 67t-67 28
h-157q-39 0 -67 -28t-27.5 -67t27.5 -67q28 -27 67 -27zM259 587q-29 -4 -41 -29.5t0 -51t43 -28.5h169q30 3 42.5 28.5t1 51t-41.5 29.5v-1z" />
    <glyph glyph-name="quotesingle" unicode="'" horiz-adv-x="180" 
d="M95 831q44 0 66 -38t1 -76l-67 -103h-77v140q0 32 22.5 54.5t54.5 22.5z" />
    <glyph glyph-name="parenleft" unicode="(" horiz-adv-x="269" 
d="M278 803q-107 -209 -108 -442q-2 -226 97 -434h-142q-90 210 -88 435q2 231 98 441h143z" />
    <glyph glyph-name="parenright" unicode=")" horiz-adv-x="268" 
d="M143 803q89 -211 88 -435q-2 -231 -98 -441h-143q106 208 108 442q2 225 -97 434h142z" />
    <glyph glyph-name="asterisk" unicode="*" horiz-adv-x="377" 
d="M360 776v-93h-89l46 -76l-79 -49l-50 82l-50 -82l-79 49l46 76h-89v93h89l-46 76l79 48l50 -81l50 81l79 -48l-46 -76h89z" />
    <glyph glyph-name="plus" unicode="+" horiz-adv-x="443" 
d="M279 423h142v-116h-142v-142h-116v142h-142v116h142v142h116v-142z" />
    <glyph glyph-name="comma" unicode="," horiz-adv-x="193" 
d="M97 157q44 0 66 -38t1 -76q-1 -1 -34 -52l-33 -51h-77v140q0 32 22.5 54.5t54.5 22.5z" />
    <glyph glyph-name="hyphen" unicode="-" horiz-adv-x="341" 
d="M322 215h-304v116h304v-116z" />
    <glyph glyph-name="period" unicode="." horiz-adv-x="191" 
d="M94.5 5q-31.5 0 -54 22.5t-22.5 54t22.5 54t54 22.5t54 -22.5t22.5 -54t-22.5 -54t-54 -22.5z" />
    <glyph glyph-name="slash" unicode="/" horiz-adv-x="457" 
d="M301 730h137l-282 -730h-136z" />
    <glyph glyph-name="zero" unicode="0" horiz-adv-x="667" 
d="M631 453v-42v-90.5v-60.5v-1q-6 -118 -92 -200.5t-204 -83t-204 79.5q-96 90 -96 219q1 186 1 193v1q6 118 92 200.5t204 83t203 -79.5q96 -90 96 -219zM486 261l2 182q-1 39 -12 69t-42 57q-44 39 -103 38t-103 -42q-43 -41 -48 -99q0 -71 -1 -128q1 -36 0 -65t12 -59.5
t42 -55.5q43 -39 102 -38t103 41q44 41 48 100z" />
    <glyph glyph-name="one" unicode="1" horiz-adv-x="357" 
d="M292 620q22 -43 21 -83v-537h-145v536q-1 18 -12 31t-25 17v1q-9 2 -105 2v143h88q58 0 105 -29.5t73 -80.5z" />
    <glyph glyph-name="two" unicode="2" horiz-adv-x="641" 
d="M516 703q42 -25 66.5 -63.5t29.5 -79t-6.5 -81.5t-36 -73t-65 -52t-88.5 -20h-145q-39 0 -67 -27.5t-28 -67.5v-94h391v-145h-535v229q0 109 69 178t164 71h157q23 3 35.5 19t12.5 35t-12 35.5t-34 19.5l-325 -1v144q47 0 100.5 0.5t82 0.5h62t49.5 -0.5t36 -2t29 -3
t21 -5t19.5 -7.5t17.5 -10z" />
    <glyph glyph-name="three" unicode="3" horiz-adv-x="654" 
d="M596 351q24 -44 28 -92t-11 -91.5t-43 -79.5t-70.5 -59t-91.5 -27v-1l-26 -1h-354v145h357q36 0 60.5 19.5t29.5 47t-1 55.5t-30 47.5t-59 19.5h-311v144h317q30 3 42.5 28.5t1 51t-41.5 29.5v-1h-319v144h311q81 0 139 -58q36 -36 50 -82.5t6 -91.5t-35 -81
q30 -29 51 -66z" />
    <glyph glyph-name="four" unicode="4" horiz-adv-x="649" 
d="M457 396v334h145v-730h-145v252h-197q-96 1 -165 70.5t-69 168.5v239h145v-239q0 -41 27 -68t67 -27h192z" />
    <glyph glyph-name="five" unicode="5" horiz-adv-x="654" 
d="M556 408q42 -42 59.5 -95.5t8.5 -105t-35.5 -96.5t-73.5 -74.5t-104 -34.5v-1l-27 -1h-330v145h333q36 0 60.5 19.5t30 47t0 55t-30 47t-60.5 19.5h-157q-84 0 -140.5 58t-56.5 142v197h532v-145h-391q0 -2 -0.5 -16.5t-0.5 -23t3 -23t8.5 -23t17 -15.5t28.5 -7h159
q98 0 167 -69z" />
    <glyph glyph-name="six" unicode="6" horiz-adv-x="655" 
d="M527 436q60 -44 86 -117t11 -148t-66 -126q-61 -61 -145 -69q-26 -1 -166 -1v1q-83 8 -145 69l-1 1q-65 66 -65 163v224q0 78 36.5 146t102.5 108q69 43 153 43h208v-143h-206q-53 0 -92.5 -31.5t-53.5 -76.5h211q74 -1 132 -43zM389 120q36 0 60.5 22.5t30 54t0 63
t-30 53.5t-60.5 22h-212v-133q4 -34 30.5 -58t63.5 -24h118z" />
    <glyph glyph-name="seven" unicode="7" horiz-adv-x="607" 
d="M20 586q-1 26 -1 144h560v-121l-420 -633l-122 80l353 530h-370z" />
    <glyph glyph-name="eight" unicode="8" horiz-adv-x="741" 
d="M633 417q31 -29 51 -66q23 -42 27.5 -91t-13 -100t-56.5 -90q-70 -69 -171 -70h-132q-5 0 -28.5 -0.5t-31 0t-28.5 1.5t-31.5 4t-29.5 8t-32 12.5t-29 19t-31 25.5q-39 39 -56.5 90t-13 99.5t27.5 91.5q21 37 51 66q-37 50 -37 115q0 83 57.5 140.5t139.5 57.5h206
q82 0 140 -57.5t58 -140.5q0 -65 -38 -115zM200 306q-28 -28 -27.5 -67t27.5 -67q28 -27 67 -27h206q39 0 67 27.5t28 66.5t-28 67t-67 28h-206q-39 0 -67 -28zM479 478q31 3 43 28.5t0.5 51t-40.5 29.5l-1 -1l-222 1q-29 -4 -41 -29.5t0 -51t43 -28.5h218z" />
    <glyph glyph-name="nine" unicode="9" horiz-adv-x="651" 
d="M616 497v-202q0 -105 -64 -185q-41 -51 -101 -80.5t-130 -29.5h-206v144h206q58 1 100 38q34 30 46 70h-210q-67 1 -120 35t-86 92q-23 42 -27.5 91.5t13 100t57.5 89.5q61 61 145 69q26 1 165 1v-1q89 -8 150.5 -74t61.5 -158zM474 396v107q-3 34 -29.5 58t-64.5 24
h-117q-40 0 -68 -27.5t-28 -66.5t28 -67t68 -28h211z" />
    <glyph glyph-name="colon" unicode=":" horiz-adv-x="207" 
d="M102.5 412q-31.5 0 -54 22.5t-22.5 54.5t22.5 54t54 22t54 -22t22.5 -54t-22.5 -54.5t-54 -22.5zM102.5 203q-31.5 0 -54 22.5t-22.5 54.5t22.5 54.5t54 22.5t54 -22.5t22.5 -54.5t-22.5 -54.5t-54 -22.5z" />
    <glyph glyph-name="semicolon" unicode=";" horiz-adv-x="211" 
d="M106.5 411q-31.5 0 -54 22.5t-22.5 54.5t22.5 54.5t54 22.5t54 -22.5t22.5 -54.5t-22.5 -54.5t-54 -22.5zM107 356q44 0 66 -38t1 -76q-1 -1 -17.5 -26.5l-33 -51l-16.5 -25.5h-77v140q0 32 22.5 54.5t54.5 22.5z" />
    <glyph glyph-name="less" unicode="&#x3c;" horiz-adv-x="341" 
d="M318 510l-145 -145l145 -145l-82 -82l-227 227l227 227z" />
    <glyph glyph-name="equal" unicode="=" horiz-adv-x="417" 
d="M391 199h-366v116h366v-116zM391 415h-366v116h366v-116z" />
    <glyph glyph-name="greater" unicode="&#x3e;" horiz-adv-x="341" 
d="M104 592l227 -227l-227 -227l-82 82l145 145l-145 145z" />
    <glyph glyph-name="question" unicode="?" horiz-adv-x="601" 
d="M271 5q-32 0 -54.5 22.5t-22.5 54t22.5 54t54.5 22.5t54.5 -22.5t22.5 -54t-22.5 -54t-54.5 -22.5zM545 613q28 -48 32.5 -105t-15.5 -108q-15 -39 -39 -66.5t-49.5 -41.5t-50 -24.5t-45 -21.5t-28.5 -25h-146q4 21 5 26q12 37 36.5 64.5t47 39.5t52.5 24.5t39 17.5
q38 24 51 65t-5 79q-13 25 -37.5 40t-54.5 15h-86q-34 0 -60.5 -18.5t-37.5 -51.5l-133 35q19 54 48 90.5t78 59.5q50 23 110 23h75q61 0 111 -23q65 -31 102 -94z" />
    <glyph glyph-name="at" unicode="@" horiz-adv-x="922" 
d="M460 797q117 0 216.5 -58t157.5 -157.5t58 -216.5q0 -91 -35.5 -172t-99.5 -142v301v13q0 123 -87 210t-210 87t-210 -87t-87 -210t87 -210t210 -87q50 0 97 16v288q-3 38 -31 64t-66 26q-40 0 -68.5 -28.5t-28.5 -68.5t28.5 -68.5t68.5 -28.5q13 0 27 4v-132
q-15 -2 -27 -2q-94 0 -160.5 66.5t-66.5 160.5t66.5 160.5t160.5 66.5q92 0 158 -64.5t69 -155.5v-375q-104 -64 -227 -64q-117 0 -216.5 58t-157.5 157.5t-58 216.5t58 216.5t157.5 157.5t216.5 58z" />
    <glyph glyph-name="A" unicode="A" horiz-adv-x="673" 
d="M37 -1v283q0 22 -1 65.5t-1 64t2 55.5t8.5 56t17 49t28.5 51.5t42 46.5q86 80 204.5 79.5t204.5 -83.5t93 -201v-1q1 -109 1 -465h-145v267h-309v-267h-145zM491 411v16.5v18.5t-1 17.5t-3 20t-5.5 19t-9 21t-13.5 19t-18 20.5q-44 41 -103 42t-103 -38
q-11 -10 -19.5 -21t-14 -19.5t-9.5 -21t-6 -19.5t-3 -21t-1.5 -18t0 -19t0.5 -17h309z" />
    <glyph glyph-name="B" unicode="B" horiz-adv-x="660" 
d="M426 -1h-381v730h357q81 0 140 -58q35 -36 49.5 -82t6 -91.5t-35.5 -82.5q31 -28 51 -65q23 -43 28 -92t-12.5 -99.5t-57.5 -89.5q-61 -62 -145 -69v-1zM408 477q30 3 42.5 28t1 50.5t-41.5 29.5h-220v-108h218zM400 144q37 0 62 19.5t31 47t0 55.5t-30.5 47t-60.5 19
h-212v-188h210z" />
    <glyph glyph-name="C" unicode="C" horiz-adv-x="590" 
d="M574 -1h-252q-104 0 -185 63q-79 63 -104 161q-5 20 -7.5 45t-2.5 41t0.5 47t0.5 43q0 31 1 48t5.5 46.5t16.5 56.5t31 55q58 82 154 112q44 14 90 14h252v-144h-252q-59 0 -101.5 -38t-50.5 -93q-2 -13 -2 -93t1 -89q9 -57 52 -94t101 -37h252v-144z" />
    <glyph glyph-name="D" unicode="D" horiz-adv-x="666" 
d="M641 457q1 -3 1 -94t-5 -120q-12 -64 -46 -112q-40 -62 -106 -97t-141 -35h-299v732h299q75 0 140.5 -35.5t106.5 -96.5q44 -64 50 -142zM496 274q2 10 2 91.5t-2 90.5q-8 55 -51 93t-101 38h-154v-444h154q58 0 101 37t51 94z" />
    <glyph glyph-name="E" unicode="E" horiz-adv-x="617" 
d="M592 143v-144h-243q-114 0 -194 52q-74 47 -108 129q-4 9 -7 19t-5 17.5t-3.5 19t-3 18t-2 19t-1 18t-1 19.5t-0.5 18v20v18v32.5v35.5t2 31.5t5.5 36.5t10.5 34t17 38q42 80 125 121q73 36 165 36h243v-144h-243q-85 0 -132.5 -43t-48.5 -108h372v-143h-372
q2 -65 48.5 -107.5t132.5 -42.5h243z" />
    <glyph glyph-name="F" unicode="F" horiz-adv-x="567" 
d="M482 436v-143h-304v-294h-144v357v24.5v30t1.5 32.5t4 37t8 37t13 39t19.5 37t27 37t36 33.5t46 31.5q32 17 80 26.5t90 9.5h203v-145h-203q-79 0 -128.5 -39t-52.5 -111h304z" />
    <glyph glyph-name="G" unicode="G" horiz-adv-x="700" 
d="M369 379h307q0 -13 1 -43.5t0.5 -53.5t-2.5 -43q-5 -48 -28.5 -94.5t-61 -84t-92 -60.5t-115.5 -23h-53q-105 0 -185 64t-104 158q-2 9 -3.5 17t-2.5 15.5t-1.5 20t-1 22.5t-0.5 32v40v53.5v66.5q0 71 38.5 137t108 108t151.5 42h53q102 0 182.5 -62.5t106.5 -159.5
l-135 -48l-2 -2q-9 53 -51 90t-101 37h-53q-64 0 -109 -45t-45 -108q1 -91 0 -180q0 -70 53 -117q45 -38 128 -38t127 38q36 32 48 77h-158v144z" />
    <glyph glyph-name="H" unicode="H" horiz-adv-x="688" 
d="M641 0h-144v332h-307v-332h-145l1 730h144v-255h307v255h144v-730z" />
    <glyph glyph-name="I" unicode="I" horiz-adv-x="236" 
d="M189 0h-145l1 730h144v-730z" />
    <glyph glyph-name="J" unicode="J" horiz-adv-x="587" 
d="M550 260q-6 -119 -92 -201t-206 -82q-86 0 -147.5 38t-112.5 112q47 37 114 91q11 -18 15.5 -24.5t19.5 -24t28 -25.5t35.5 -15.5t47.5 -7.5q61 0 105 41t48 100v470h145v-471v-1z" />
    <glyph glyph-name="K" unicode="K" horiz-adv-x="657" 
d="M483 240q0 40 -27.5 67.5t-67.5 27.5h-198v-334h-145v731h145v-253h203q21 2 35.5 17.5t14.5 37.5v197h143v-197q0 -65 -37 -117q79 -72 79 -177v-241h-145v241z" />
    <glyph glyph-name="L" unicode="L" horiz-adv-x="545" 
d="M222 146q8 -2 323 -2v-144h-307q-58 0 -105.5 31.5t-71 75t-22.5 86.5v537h145v-536q1 -18 12 -30.5t25 -17.5h1z" />
    <glyph glyph-name="M" unicode="M" horiz-adv-x="848" 
d="M516 732q122 0 210 -87.5t88 -210.5v-435h-145q0 373 1 435q0 59 -41.5 104t-100.5 49q-13 -1 -32 -1v-585h-145l1 585h-36q-57 -5 -97.5 -49.5t-40.5 -102.5v-435h-144q0 451 1 460v1q11 113 95 192.5t202 79.5h184z" />
    <glyph glyph-name="N" unicode="N" horiz-adv-x="663" 
d="M180 0h-144q0 368 1 466v1q6 117 91 199t202 82.5t201 -79.5q96 -89 96 -216v-453h-143v388q0 36 0.5 65t-12 59t-41.5 56q-43 38 -101.5 37t-101.5 -41q-44 -41 -48 -99v-465z" />
    <glyph glyph-name="O" unicode="O" horiz-adv-x="705" 
d="M378 753q114 0 201.5 -78.5t95.5 -197.5q1 -8 1 -108v-33.5v-32.5t-0.5 -28.5t-2 -29.5t-3.5 -26.5t-6 -28t-9 -25.5t-12.5 -28t-16.5 -27q-39 -61 -104.5 -97t-143.5 -36h-53q-77 0 -142.5 36t-105.5 97q-12 17 -20.5 33t-14 36t-9 31t-4.5 35t-1.5 30t-0.5 35v32v124
q0 72 38.5 137.5t108 107.5t151.5 42h53zM531 252q1 12 1 114t-1 112q-9 55 -52 93q-45 39 -127.5 39t-127.5 -39q-43 -38 -51 -93q-2 -10 -2 -112t2 -114q8 -56 51 -93.5t101 -37.5h53q58 0 101 37.5t52 93.5z" />
    <glyph glyph-name="P" unicode="P" horiz-adv-x="651" 
d="M403 730q99 0 168.5 -70t69.5 -170q0 -98 -69 -168t-167 -70h-215v-252h-145l1 730h357zM403 396q35 0 59.5 19.5t30 47.5t0 55.5t-30.5 47t-62 19.5h-210v-189h213z" />
    <glyph glyph-name="Q" unicode="Q" horiz-adv-x="722" 
d="M707 78l-102 -103l-70 70q-72 -46 -159 -46h-53q-118 0 -202 79t-95 191v212q9 114 95.5 193t201.5 79h53q116 0 202 -79t95 -193l1 -206q-1 -1 -2.5 -14t-4 -27.5t-11 -38t-21.5 -45.5zM323 144h26.5h26.5q58 0 101 37t51 94q2 12 2 102.5t-2 100.5q-8 55 -51 93
q-45 39 -127.5 39t-127.5 -39q-43 -38 -51 -93q-2 -10 -2 -100.5t2 -102.5q8 -57 51 -94t101 -37z" />
    <glyph glyph-name="R" unicode="R" horiz-adv-x="649" 
d="M443 198q0 22 -16 38t-39 16h-198v-252h-145v730h343q100 0 170 -70q74 -78 69.5 -178.5t-78.5 -168.5q37 -51 37 -115v-198h-143v198zM190 586v-189h198q40 0 67.5 27t27.5 66t-28 68q-27 28 -70 28h-195z" />
    <glyph glyph-name="S" unicode="S" horiz-adv-x="615" 
d="M528 404q36 -36 53.5 -81.5t16.5 -89.5t-18.5 -87t-47.5 -75t-73.5 -52t-92.5 -20h-326v143h320q36 0 60 19.5t29.5 47t-0.5 55.5t-30 47.5t-59 19.5q-96 0 -138 -1q-81 0 -137 51.5t-64 122.5q-12 92 48.5 159t149.5 67h327v-144h-331q-32 -2 -45.5 -29t-0.5 -53.5
t46 -29.5h145q98 0 168 -70z" />
    <glyph glyph-name="T" unicode="T" horiz-adv-x="597" 
d="M371 0h-144v586h-230v144h603v-144h-229v-586z" />
    <glyph glyph-name="U" unicode="U" horiz-adv-x="670" 
d="M487 732h145v-471v-1q-6 -118 -92 -200.5t-204 -83t-204 79.5q-96 90 -96 219v457h144v-392q1 -36 0 -65.5t12 -60t42 -55.5q43 -39 102 -38t103 42t48 100v469z" />
    <glyph glyph-name="V" unicode="V" horiz-adv-x="663" 
d="M331 200q188 519 201 553l134 -48l-238 -661q-11 -30 -37.5 -48.5t-59 -18.5t-59 18.5t-37.5 48.5l-239 661l134 48q114 -311 201 -553z" />
    <glyph glyph-name="W" unicode="W" horiz-adv-x="892" 
d="M706 730h146v-511q-2 -66 -30 -118.5t-71.5 -81t-95 -39t-105 4t-95.5 51.5l-10 9l-10 -9q-71 -62 -165 -59t-161 70q-67 68 -70 172v511h145v-511q0 -38 19.5 -63t47.5 -30.5t55.5 1t47 31t19.5 59.5v513h144v-513q0 -35 19.5 -59.5t47.5 -31t55.5 -1t47 30.5t19.5 63
v511z" />
    <glyph glyph-name="X" unicode="X" horiz-adv-x="666" 
d="M2 64l240 312l-219 290l117 87l193 -256l192 256l117 -87l-218 -290l240 -313l-117 -86l-214 277l-214 -276z" />
    <glyph glyph-name="Y" unicode="Y" horiz-adv-x="622" 
d="M463 730h145v-187q0 -109 -66.5 -188t-158.5 -101v-254h-145v254q-87 21 -151.5 92.5t-73.5 170.5q-1 9 -1 213h144v-187q0 -68 54 -116q43 -38 102 -37t103 41q44 41 48 100v199z" />
    <glyph glyph-name="Z" unicode="Z" horiz-adv-x="643" 
d="M616 641.5q15 -40.5 4.5 -81.5t-43.5 -69l-410 -348h456v-144h-477q-43 0 -78 24.5t-49.5 65t-4 81t43.5 68.5l410 349h-405v143h426q43 0 77.5 -24t49.5 -64.5z" />
    <glyph glyph-name="bracketleft" unicode="[" horiz-adv-x="365" 
d="M202 629q-33 -38 -33 -89v-350q0 -51 33 -89q28 -31 58 -39.5t75 -7.5v-127h-30q-114 0 -194 85q-70 75 -70 178v350q0 103 70 178q80 85 194 85h30v-127q-45 1 -75 -7.5t-58 -39.5z" />
    <glyph glyph-name="backslash" unicode="\" horiz-adv-x="457" 
d="M155 730l281 -730h-136l-282 730h137z" />
    <glyph glyph-name="bracketright" unicode="]" horiz-adv-x="364" 
d="M252 718q70 -75 70 -178v-350q0 -103 -70 -178q-79 -85 -193 -85h-31v127q45 -1 75 7.5t58 39.5q34 38 34 89v350q0 51 -34 89q-28 31 -57.5 39.5t-75.5 7.5v127h31q114 0 193 -85z" />
    <glyph glyph-name="asciicircum" unicode="^" horiz-adv-x="549" 
d="M182 260q-14 -19 -38 -19h-126l186 249h141l185 -249h-126q-23 0 -38 19l-92 122z" />
    <glyph glyph-name="underscore" unicode="_" horiz-adv-x="697" 
d="M652 -189h-607v116h607v-116z" />
    <glyph glyph-name="grave" unicode="`" horiz-adv-x="214" 
d="M38 653q-22 39 0.5 76.5t66.5 37.5q31 0 53.5 -22.5t22.5 -53.5v-141h-76z" />
    <glyph glyph-name="a" unicode="a" 
d="M297.5 561q116.5 0 198.5 -82.5t82 -198.5v-281h-140v281q0 58 -41 99t-99 41t-99.5 -41t-41.5 -99t41.5 -99.5t99.5 -41.5q37 0 70 19v-150q-34 -9 -70 -9q-117 0 -199 82.5t-82 198.5t82 198.5t198.5 82.5z" />
    <glyph glyph-name="b" unicode="b" horiz-adv-x="608" 
d="M591 280q0 -116 -82.5 -198.5t-199 -82.5t-198.5 82.5t-82 198.5v491h140v-491q0 -58 41.5 -99.5t99.5 -41.5t99 41.5t41 99.5t-41 99t-99 41q-38 0 -70 -19v151q34 9 70 9q116 0 198.5 -82.5t82.5 -198.5z" />
    <glyph glyph-name="c" unicode="c" horiz-adv-x="506" 
d="M397 181l99 -100q-82 -82 -198.5 -82t-198.5 82.5t-82 198.5t82 198.5t198.5 82.5t198.5 -83l-99 -99q-41 41 -99 41t-99.5 -41t-41.5 -99t41.5 -99.5t99.5 -41.5t99 42z" />
    <glyph glyph-name="d" unicode="d" horiz-adv-x="608" 
d="M579 280q0 -116 -82.5 -198.5t-199 -82.5t-198.5 82.5t-82 198.5t82 198.5t199 82.5q36 0 70 -9v-151q-33 19 -70 19q-58 0 -99.5 -41t-41.5 -99t41.5 -99.5t99.5 -41.5t99 41.5t41 99.5v491h141v-491z" />
    <glyph glyph-name="e" unicode="e" horiz-adv-x="548" 
d="M289 140q60 -4 106 40l111 -87q-32 -36 -71 -58q-64 -36 -137 -36q-116 0 -198.5 82.5t-82.5 198.5t82 198.5t199 82.5q71 0 136.5 -36t104.5 -101q-83 -106 -173 -222l-110 88l94 120q-19 10 -52 10q-58 0 -99.5 -41t-41.5 -99q0 -56 38 -96t94 -44z" />
    <glyph glyph-name="f" unicode="f" horiz-adv-x="334" 
d="M182 -1h-140v491q0 117 82 199t199 82h140v-140h-140q-58 0 -99.5 -41t-41.5 -100h141v-140h-141v-351z" />
    <glyph glyph-name="g" unicode="g" horiz-adv-x="610" 
d="M297.5 561q116.5 0 199 -82.5t82.5 -198.5v-281q0 -116 -82.5 -198.5t-198.5 -82.5q-36 0 -70 9v151q32 -19 70 -19q58 0 99 41t41 99v281q0 58 -41 99t-99 41t-99.5 -41t-41.5 -99t41.5 -99.5t99.5 -41.5q37 0 70 19v-150q-34 -9 -70 -9q-117 0 -199 82.5t-82 198.5
t82 198.5t198.5 82.5z" />
    <glyph glyph-name="h" unicode="h" horiz-adv-x="494" 
d="M182 561q117 0 199 -82.5t82 -198.5v-281h-140v281q0 58 -41 99t-100 41v-421h-140v772h140v-210z" />
    <glyph glyph-name="i" unicode="i" horiz-adv-x="226" 
d="M112 624q-32 0 -54.5 22.5t-22.5 54.5t22.5 54.5t54.5 22.5t55 -22.5t23 -54.5t-23 -54.5t-55 -22.5zM183 -1h-141v562h141v-562z" />
    <glyph glyph-name="j" unicode="j" horiz-adv-x="225" 
d="M42 -1v562h140v-562q0 -116 -82 -198.5t-199 -82.5h-2.5t-2.5 1v140h2h3q58 0 99.5 41t41.5 99zM112 624q-32 0 -55 22.5t-23 54.5t23 54.5t55 22.5t54.5 -22.5t22.5 -54.5t-22.5 -54.5t-54.5 -22.5z" />
    <glyph glyph-name="k" unicode="k" horiz-adv-x="554" 
d="M397 380q63 -37 99.5 -101t36.5 -140v-140h-140v140q0 59 -41 100t-99 41q-38 0 -71 -19v-262h-140v772h140v-351q59 0 100 41t41 100h140q0 -103 -66 -181z" />
    <glyph glyph-name="l" unicode="l" horiz-adv-x="226" 
d="M42 -1v772h140v-772h-140z" />
    <glyph glyph-name="m" unicode="m" horiz-adv-x="910" 
d="M870 370q2 -9 3 -16t2 -20.5t1 -26.5v-43.5v-60.5t-0.5 -87.5t-0.5 -116.5h-140q0 41 0.5 88t0.5 73.5v57.5t-0.5 47.5t-2 36t-3.5 29t-5.5 21t-7.5 18.5t-11 14q-30 34 -76 34t-76 -34q-6 -7 -10.5 -14t-8 -18.5t-5.5 -21t-3.5 -29t-2 -36t-0.5 -47.5t0.5 -57.5
t0.5 -73.5v-88h-142q0 41 0.5 88t0.5 73.5v57.5t-0.5 47.5t-2 36t-3.5 29t-5 21t-7.5 18.5t-11.5 14q-30 34 -76 34t-76 -34q-6 -7 -10.5 -14t-8 -18.5t-5.5 -21t-3.5 -29t-2 -36t-0.5 -47.5t0.5 -57.5t0.5 -73.5v-88h-140q0 59 -0.5 116.5t-0.5 87.5v60.5v43.5t1 26.5
t2 20.5t4 16q20 89 88 139.5t151 51.5q105 -1 176 -73q71 72 176 73q84 -1 151.5 -51.5t88.5 -139.5z" />
    <glyph glyph-name="n" unicode="n" horiz-adv-x="495" 
d="M182 561q117 0 199 -82.5t82 -198.5v-281h-140v281q0 58 -41 99t-100 41v-421h-140v562h140z" />
    <glyph glyph-name="o" unicode="o" horiz-adv-x="597" 
d="M579 280q0 -116 -82.5 -198.5t-199 -82.5t-198.5 82.5t-82 198.5t82 198.5t198.5 82.5t199 -82.5t82.5 -198.5zM298 139q58 0 99 41.5t41 99.5t-41.5 99t-98.5 41q-58 0 -99.5 -41t-41.5 -99t41.5 -99.5t99.5 -41.5z" />
    <glyph glyph-name="p" unicode="p" 
d="M592 280q0 -116 -82.5 -198.5t-198.5 -82.5q-36 0 -70 9v150q32 -19 70 -19q58 0 99 41.5t41 99.5t-41 99t-99 41t-99.5 -41t-41.5 -99v-491h-140v491q0 116 82 198.5t198.5 82.5t199 -82.5t82.5 -198.5z" />
    <glyph glyph-name="q" unicode="q" 
d="M438 -211v491q0 58 -41 99t-99 41t-99.5 -41t-41.5 -99t41.5 -99.5t99.5 -41.5q37 0 70 19v-150q-34 -9 -70 -9q-117 0 -199 82.5t-82 198.5t82 198.5t198.5 82.5t199 -82.5t82.5 -198.5v-491h-141z" />
    <glyph glyph-name="r" unicode="r" horiz-adv-x="317" 
d="M30 -1v281q0 116 82 198.5t199 82.5v-141q-58 0 -99.5 -41t-41.5 -99v-281h-140z" />
    <glyph glyph-name="s" unicode="s" horiz-adv-x="492" 
d="M470 174q0 -72 -51 -123.5t-123 -51.5h-1h-257v140h258q14 0 24.5 10t10.5 24.5t-10.5 25t-24.5 10.5h-98q-72 1 -122.5 51.5t-50.5 122.5q0 73 51 124t124 51v0h235v-140h-235q-15 0 -25 -10t-10 -24.5t10 -25t25 -10.5h97q72 0 122.5 -51t50.5 -123z" />
    <glyph glyph-name="t" unicode="t" horiz-adv-x="393" 
d="M380 8q-34 -9 -70 -9q-117 0 -199 82.5t-82 198.5v421h140v-211h141v-140h-141v-70q0 -58 41.5 -99.5t99.5 -41.5q37 0 70 19v-150z" />
    <glyph glyph-name="u" unicode="u" horiz-adv-x="557" 
d="M518 190q-21 -89 -88.5 -139.5t-151.5 -51.5q-83 1 -151 51.5t-88 139.5q-3 9 -4 16t-2 20.5t-1 26.5v43v60t0.5 88t0.5 117h140v-88t-0.5 -73.5t-0.5 -58t0.5 -47.5t2 -35.5t3.5 -29.5t5.5 -21t8 -18t10.5 -15q30 -34 76 -34t76 34q7 8 11.5 15t7.5 18t5 21t3.5 29.5
t2 35.5t0.5 47.5v58t-0.5 73.5t-0.5 88h141v-117v-88v-60v-43t-1 -26.5t-2 -20.5t-3 -16z" />
    <glyph glyph-name="v" unicode="v" horiz-adv-x="494" 
d="M463 280q0 -116 -82 -198.5t-199 -82.5h-140v562h140v-422q59 0 100 41.5t41 99.5v281h140v-281z" />
    <glyph glyph-name="w" unicode="w" horiz-adv-x="909" 
d="M870 190q-21 -89 -88.5 -139.5t-151.5 -51.5q-105 1 -176 73q-71 -72 -176 -73q-83 1 -151 51.5t-88 139.5q-3 9 -4 16t-2 20.5t-1 26.5v43v60t0.5 88t0.5 117h140v-88t-0.5 -73.5t-0.5 -58t0.5 -47.5t2 -35.5t3.5 -29.5t5.5 -21t8 -18t10.5 -15q30 -34 76 -34t76 34
q7 8 11.5 15t7.5 18t5 21t3.5 29.5t2 35.5t0.5 47.5v58t-0.5 73.5t-0.5 88h142v-88t-0.5 -73.5t-0.5 -58t0.5 -47.5t2 -35.5t3.5 -29.5t5.5 -21t8 -18t10.5 -15q30 -34 76 -34t76 34q7 8 11 15t7.5 18t5.5 21t3.5 29.5t2 35.5t0.5 47.5v58t-0.5 73.5t-0.5 88h140
q0 -59 0.5 -117t0.5 -88v-60v-43t-1 -26.5t-2 -20.5t-3 -16z" />
    <glyph glyph-name="x" unicode="x" horiz-adv-x="464" 
d="M441 139v-140q-62 1 -116 26t-93 69q-39 -44 -93.5 -69.5t-115.5 -25.5v140q58 0 99 41q44 43 40.5 106t-53.5 102q-38 30 -86 30v140q61 0 115.5 -25t93.5 -70q39 44 93 69t116 26v-140q-58 0 -98 -41q-44 -43 -40.5 -106t53.5 -102q37 -30 85 -30z" />
    <glyph glyph-name="y" unicode="y" horiz-adv-x="493" 
d="M450 -1q0 -116 -82 -198.5t-199 -82.5q-35 0 -70 9v151q33 -19 70 -19q59 0 100 41t41 99q-117 0 -199 82.5t-82 198.5v281h140v-281q0 -58 41.5 -99.5t99.5 -41.5v422h140v-562z" />
    <glyph glyph-name="z" unicode="z" horiz-adv-x="533" 
d="M511 -1h-421q-29 0 -49.5 20.5t-20.5 49.5q0 28 19 48l252 303h-271v141h421q29 0 49.5 -21t20.5 -50q0 -28 -20 -48l-251 -303h271v-140z" />
    <glyph glyph-name="braceleft" unicode="{" horiz-adv-x="318" 
d="M309 691q-32 -6 -55.5 -20t-42.5 -43q-28 -43 -20 -94q6 -34 8 -50q8 -70 -44 -119q52 -49 44 -119q-2 -16 -8 -51q-8 -50 20 -93q19 -30 42.5 -43.5t55.5 -19.5v-129q-67 11 -115 36t-87 82q-58 85 -42 187q5 34 8 70l-44 64v32l44 64q-3 36 -8 70q-16 102 42 187
q39 58 87 82.5t115 35.5v-129z" />
    <glyph glyph-name="verticalbar" unicode="|" horiz-adv-x="232" 
d="M185 -140h-140v1010h140v-1010z" />
    <glyph glyph-name="braceright" unicode="}" horiz-adv-x="318" 
d="M288 381v-32l-44 -64q3 -36 8 -70q16 -102 -42 -187q-39 -57 -87 -82t-115 -36v129q32 6 56 19.5t42 43.5q28 43 20 93q-6 35 -8 51q-8 70 44 119q-52 49 -44 119q2 15 8 50q8 51 -20 94q-18 29 -42 43t-56 20v129q67 -11 115 -35.5t87 -82.5q58 -85 42 -187
q-5 -34 -8 -70z" />
    <glyph glyph-name="asciitilde" unicode="~" horiz-adv-x="525" 
d="M115 202l-2 -7h-84v9q0 77 41 125q21 26 50.5 38.5t58 11.5t51.5 -13q25 -12 60 -33q37 -24 54 -24q26 0 40 11.5t24 46.5l2 7h85v-9q0 -57 -22.5 -99.5t-63.5 -61.5q-27 -13 -58 -13q-30 0 -55.5 12t-60.5 34q-37 24 -54 24q-29 0 -45 -15q-16 -16 -21 -44z" />
    <glyph glyph-name="nonbreakingspace" unicode="&#xa0;" horiz-adv-x="363" 
 />
    <glyph glyph-name="exclamdown" unicode="&#xa1;" horiz-adv-x="219" 
d="M108.5 366q-31.5 0 -54 22.5t-22.5 54.5t22.5 54.5t54 22.5t54 -22.5t22.5 -54.5t-22.5 -54.5t-54 -22.5zM178 -206h-139v510h139v-510z" />
    <glyph glyph-name="cent" unicode="&#xa2;" horiz-adv-x="520" 
d="M303 225q58 0 99 41l99 -99q-66 -67 -159 -80v-87h-103v92q-94 21 -155.5 97.5t-61.5 175.5t61.5 175.5t155.5 97.5v91h103v-86q93 -13 159 -79l-99 -100q-41 41 -99 41t-99.5 -41t-41.5 -99t41.5 -99t99.5 -41z" />
    <glyph glyph-name="sterling" unicode="&#xa3;" horiz-adv-x="585" 
d="M329 144h241v-144h-534v144h88q31 6 54.5 30.5t26.5 57t-22 65.5q-1 1 -20 25h-127v103h46q-39 64 -31.5 132t54.5 115q37 40 89 55q38 12 84 13.5t84 -5t71 -14.5t52 -16l18 -7l-49 -115q-37 15 -74 20t-63.5 2.5t-48 -7.5t-32.5 -10l-11 -5q-22 -11 -29 -33.5t8 -47.5
q3 -4 62 -77h188v-103h-120q19 -52 13 -110q-4 -35 -18 -68z" />
    <glyph glyph-name="currency" unicode="&#xa4;" horiz-adv-x="608" 
d="M523 371q0 -51 -22 -97l74 -74l-82 -82l-69 69q-55 -35 -120 -35t-120 35l-69 -69l-82 82l74 74q-23 46 -23 97q0 47 19 90l-70 70l82 82l62 -62q57 40 127 40t126 -40l63 62l82 -82l-71 -70q19 -43 19 -90zM303.5 256q47.5 0 81.5 34t34 81.5t-34 81t-81.5 33.5
t-81 -33.5t-33.5 -81t33.5 -81.5t81 -34z" />
    <glyph glyph-name="yen" unicode="&#xa5;" horiz-adv-x="655" 
d="M625 543q0 -101 -58.5 -177t-143.5 -105h134v-102h-157v-159h-145v159h-157v102h133q-79 27 -135.5 96t-65.5 160q-1 10 -1 213h144v-187q0 -68 54 -115q43 -39 102 -38t103 41q44 41 48 100v199h145v-187z" />
    <glyph glyph-name="brokenbar" unicode="&#xa6;" horiz-adv-x="225" 
d="M182 334h-140v365h140v-365zM182 -175h-140v365h140v-365z" />
    <glyph glyph-name="section" unicode="&#xa7;" horiz-adv-x="514" 
d="M428 237q23 -31 28 -69q8 -67 -36.5 -116.5t-109.5 -49.5h-241v105q241 0 244 1q23 1 33 21t0.5 39.5t-33.5 21.5h-107q-72 0 -124 51q-54 60 -50.5 131.5t54.5 120.5q-23 31 -28 69q-8 67 36.5 116.5t109.5 49.5h241v-106h-244q-23 -1 -33 -21t-0.5 -39.5t33.5 -21.5
h107q72 0 123 -52q55 -59 51.5 -130.5t-54.5 -120.5zM308 296q26 0 44 14t22 34.5t-0.5 41t-22 34.5t-43.5 14h-39h-63q-33 0 -51 -21.5t-18 -47.5t18.5 -47.5t50.5 -21.5h20h19h63z" />
    <glyph glyph-name="dieresis" unicode="&#xa8;" horiz-adv-x="453" 
d="M105.5 545q-31.5 0 -54 22.5t-22.5 54t22.5 54t54 22.5t54 -22.5t22.5 -54t-22.5 -54t-54 -22.5zM347 545q-32 0 -54.5 22.5t-22.5 54t22.5 54t54.5 22.5t54.5 -22.5t22.5 -54t-22.5 -54t-54.5 -22.5z" />
    <glyph glyph-name="copyright" unicode="&#xa9;" horiz-adv-x="692" 
d="M352 466q-42 0 -71.5 -29.5t-29.5 -71t29.5 -71t71.5 -29.5q36 0 64 23l53 -53q-50 -45 -117 -45q-73 0 -124 51.5t-51 124t51 123.5t124 51q67 0 117 -45l-53 -53q-28 24 -64 24zM346 685q87 0 160.5 -43t116.5 -116.5t43 -160.5t-43 -160.5t-116.5 -116.5t-160.5 -43
t-160.5 43t-116.5 116.5t-43 160.5t43 160.5t116.5 116.5t160.5 43zM346 123q100 0 170.5 71t70.5 171t-70.5 170.5t-170.5 70.5t-170.5 -70.5t-70.5 -170.5t70.5 -171t170.5 -71z" />
    <glyph glyph-name="ordfeminine" unicode="&#xaa;" horiz-adv-x="393" 
d="M194 746q70 0 120 -50t50 -120v-170h-93v170q0 32 -22.5 54.5t-54.5 22.5t-54.5 -22.5t-22.5 -54.5t22.5 -54.5t54.5 -22.5q21 0 47 16v-103q-25 -6 -47 -6q-70 0 -120 50t-50 120t50 120t120 50z" />
    <glyph glyph-name="guillemotleft" unicode="&#xab;" horiz-adv-x="490" 
d="M269 570l-134 -205l134 -205h-118l-134 205l134 205h118zM473 570l-134 -205l134 -205h-117l-135 205l135 205h117z" />
    <glyph glyph-name="logicalnot" unicode="&#xac;" horiz-adv-x="628" 
d="M531 419q30 -15 46.5 -42t16.5 -60v-125h-96q0 128 -1 130q-3 11 -14 12h-455v97h455q23 1 48 -12z" />
    <glyph glyph-name="softhyphen" unicode="&#xad;" horiz-adv-x="0" 
 />
    <glyph glyph-name="registered" unicode="&#xae;" horiz-adv-x="420" 
d="M209.5 693q76.5 0 130.5 -54t54 -130.5t-54 -131t-130.5 -54.5t-131 54.5t-54.5 131t54.5 130.5t131 54zM209 378q54 0 92 38t38 92t-38 92t-92 38t-92 -38t-38 -92t38 -92t92 -38zM271 581q19 -19 18 -45q-1 -24 -17 -41q7 -12 7 -26v-51h-44v51q0 8 -7 8h-42v-59h-44
v181h86q25 0 43 -18zM240 526q5 5 5 12t-5 12t-13 5h-40v-34h41q7 0 12 5z" />
    <glyph glyph-name="overscore" unicode="&#xaf;" horiz-adv-x="663" 
d="M635 557h-607v116h607v-116z" />
    <glyph glyph-name="degree" unicode="&#xb0;" horiz-adv-x="329" 
d="M163.5 818q59.5 0 101.5 -42t42 -101.5t-42 -101.5t-101.5 -42t-101.5 42t-42 101.5t42 101.5t101.5 42zM164 599q31 0 53 22t22 53t-22 53t-53 22t-53 -22t-22 -53t22 -53t53 -22z" />
    <glyph glyph-name="plusminus" unicode="&#xb1;" horiz-adv-x="464" 
d="M384 0h-304v116h304v-116zM290 509h142v-116h-142v-142h-116v142h-142v116h142v142h116v-142z" />
    <glyph glyph-name="twosuperior" unicode="&#xb2;" horiz-adv-x="377" 
d="M162 504q-16 0 -27.5 -11.5t-11.5 -27.5v-6.5v-16v-15.5h202v-96h-297v129q0 63 39.5 100.5t91.5 38.5q56 1 80 0q15 2 16 17q0 17 -15 19v1q-14 -1 -167 -1h-10v94h10q34 0 80 1q79 0 100 -2t41 -14q33 -20 47 -55t4 -73q-11 -37 -40 -59.5t-68 -22.5h-75z" />
    <glyph glyph-name="threesuperior" unicode="&#xb3;" horiz-adv-x="383" 
d="M318 558q30 -31 36 -72t-9.5 -74.5t-48.5 -56.5t-75 -24h-32.5h-64h-65.5h-32v96h195q24 0 34 19t-0.5 38.5t-33.5 19.5h-171v95h174q14 2 14.5 17.5t-13.5 18.5h-175v94h171q32 0 58 -16.5t39.5 -41.5t14 -55.5t-15.5 -57.5z" />
    <glyph glyph-name="acute" unicode="&#xb4;" horiz-adv-x="214" 
d="M109 767q44 0 66 -37.5t1 -76.5l-67 -103h-77v141q0 31 22.5 53.5t54.5 22.5z" />
    <glyph glyph-name="mu" unicode="&#xb5;" horiz-adv-x="698" 
d="M534 283q0 -58 41.5 -99t99.5 -41v-141q-118 0 -201 84q-35 -40 -84 -61.5t-102 -22.5q-55 1 -105 24v-165h-140v377v326h140v-281q2 -43 8.5 -65.5t20.5 -38.5q30 -34 76 -34t76 34q18 20 24 50.5t6 104.5v47q0 15 -0.5 48.5t-0.5 67v67.5h141v-262v-17v-2z" />
    <glyph glyph-name="paragraph" unicode="&#xb6;" horiz-adv-x="504" 
d="M74 600q23 33 57.5 54.5t69 31t74 12t69.5 -0.5t59.5 -8t40.5 -8t15 -5v-725h-70v656h-121v-656h-70v320q-72 13 -120.5 69.5t-48.5 131.5q0 72 45 128z" />
    <glyph glyph-name="periodcentered" unicode="&#xb7;" horiz-adv-x="190" 
d="M94.5 308q-31.5 0 -54 22.5t-22.5 54t22.5 54t54 22.5t54 -22.5t22.5 -54t-22.5 -54t-54 -22.5z" />
    <glyph glyph-name="cedilla" unicode="&#xb8;" horiz-adv-x="78" 
d="M145 -65q22 -20 25.5 -50t-9.5 -48q-24 -42 -91.5 -51.5t-128.5 19.5l12 40q4 10 13 14q9 3 18 -2q19 -10 39 -11.5t33 6.5q14 9 14 25q0 11 -7 19t-22 12.5t-25.5 6.5t-30.5 5q-6 1 -10 2q23 73 25 78h78q-1 -4 -9 -31q52 -12 76 -34z" />
    <glyph glyph-name="onesuperior" unicode="&#xb9;" horiz-adv-x="223" 
d="M178 666q13 -24 12 -48v-289h-97l-1 289q0 11 -11 14q-2 1 -62 1v96h57q32 0 59 -16.5t43 -46.5z" />
    <glyph glyph-name="ordmasculine" unicode="&#xba;" horiz-adv-x="389" 
d="M194 746q70 0 120 -50t50 -120t-50 -120t-120 -50t-120 50t-50 120t50 120t120 50zM194 499q32 0 54.5 22.5t22.5 54.5t-23 54.5t-54 22.5q-32 0 -54.5 -22.5t-22.5 -54.5t23 -54.5t54 -22.5z" />
    <glyph glyph-name="guillemotright" unicode="&#xbb;" horiz-adv-x="490" 
d="M338 570l134 -205l-134 -205h-118l135 205l-135 205h118zM134 570l134 -205l-134 -205h-118l134 205l-134 205h118z" />
    <glyph glyph-name="onequarter" unicode="&#xbc;" horiz-adv-x="907" 
d="M192 618v-287h-100v287q-1 8 -10 12h-50h-13v100h58q33 0 60 -17t43 -47q13 -24 12 -48zM447 730h137l-282 -730h-136zM768 400h101v-400h-101v129h-87q-55 0 -94 40t-39 95v136h101v-136q0 -15 10 -25t25 -10h84v171z" />
    <glyph glyph-name="onehalf" unicode="&#xbd;" horiz-adv-x="872" 
d="M192 618v-287h-100v287q-1 8 -10 12h-50h-13v100h58q33 0 60 -17t43 -47q13 -24 12 -48zM447 730h137l-282 -730h-136zM653 170q-14 0 -24.5 -10t-10.5 -25v-34h199v-101h-299v130q0 63 40 101t92 40h80q11 1 12 14q0 13 -12 15q-11 -1 -82 -1h-96v100h13q31 0 79 1
q79 0 100.5 -2t40.5 -14q35 -21 49 -56.5t3 -73.5t-40.5 -61t-69.5 -23h-74z" />
    <glyph glyph-name="threequarters" unicode="&#xbe;" horiz-adv-x="983" 
d="M348 402q-31 -57 -94 -69v-2h-26h-195v100h196q17 0 25.5 10.5t8.5 24.5t-9 24.5t-25 10.5h-172v100h13h161q12 2 12 15q0 12 -11 14h-175v100h172q47 0 80 -33q28 -28 33 -67t-15 -72q12 -13 21 -29q16 -29 16 -63t-16 -64zM845 400h101v-400h-101v129h-88q-54 0 -93 40
t-39 95v136h101v-136q0 -15 10 -25t24 -10h85v171zM550 730h137l-282 -730h-136z" />
    <glyph glyph-name="questiondown" unicode="&#xbf;" horiz-adv-x="461" 
d="M322.5 366q-31.5 0 -54 22.5t-22.5 54.5t22.5 54.5t54 22.5t54 -22.5t22.5 -54.5t-22.5 -54.5t-54 -22.5zM439 2l133 -35q-13 -37 -24 -56q-37 -63 -102 -93q-50 -24 -110 -24h-75q-60 0 -110 24q-66 30 -102 93q-28 49 -33 105.5t15 108.5q15 38 39 65.5t50 42t50 24.5
t44.5 21.5t28.5 25.5h146q-7 -38 -23 -66.5t-38 -45t-42 -26.5t-43.5 -19.5t-33.5 -15.5q-38 -23 -51 -64t6 -79q12 -26 36.5 -41t54.5 -15h87q33 0 60 18.5t37 51.5z" />
    <glyph glyph-name="Agrave" unicode="&#xc0;" horiz-adv-x="672" 
d="M342 799q-17 0 -28 15l-148 193h130q21 0 31 -21l97 -187h-82zM636 0h-145v267h-309v-267h-145v284q0 22 -1 65t-1 63.5t2 55.5t8.5 56.5t17 49t28.5 51t42 46.5q86 80 204.5 79.5t204.5 -83t93 -200.5v-2q1 -109 1 -465zM182 412h309v16.5v18.5t-1 18t-3 20.5t-5.5 18.5
t-9 20.5t-13.5 19.5t-18 20q-44 41 -103 42t-103 -38q-11 -10 -19.5 -20.5t-14 -19.5t-9.5 -21.5t-6 -19t-3 -21t-1.5 -18.5t0 -19t0.5 -17z" />
    <glyph glyph-name="Aacute" unicode="&#xc1;" horiz-adv-x="672" 
d="M379 814q-11 -15 -28 -15h-82l97 187q10 21 31 21h130zM636 0h-145v267h-309v-267h-145v284q0 22 -1 65t-1 63.5t2 55.5t8.5 56.5t17 49t28.5 51t42 46.5q86 80 204.5 79.5t204.5 -83t93 -200.5v-2q1 -109 1 -465zM182 412h309v16.5v18.5t-1 18t-3 20.5t-5.5 18.5
t-9 20.5t-13.5 19.5t-18 20q-44 41 -103 42t-103 -38q-11 -10 -19.5 -20.5t-14 -19.5t-9.5 -21.5t-6 -19t-3 -21t-1.5 -18.5t0 -19t0.5 -17z" />
    <glyph glyph-name="Acircumflex" unicode="&#xc2;" horiz-adv-x="671" 
d="M267 817q-11 -14 -29 -14h-95l140 187h105l139 -187h-94q-18 0 -29 14l-69 91zM636 0h-145v267h-309v-267h-145v284q0 22 -1 65t-1 63.5t2 55.5t8.5 56.5t17 49t28.5 51t42 46.5q86 80 204.5 79.5t204.5 -83t93 -200.5v-2q1 -109 1 -465zM182 412h309v16.5v18.5t-1 18
t-3 20.5t-5.5 18.5t-9 20.5t-13.5 19.5t-18 20q-44 41 -103 42t-103 -38q-11 -10 -19.5 -20.5t-14 -19.5t-9.5 -21.5t-6 -19t-3 -21t-1.5 -18.5t0 -19t0.5 -17z" />
    <glyph glyph-name="Atilde" unicode="&#xc3;" horiz-adv-x="672" 
d="M236 827l-1 -6h-63v7q0 57 31 94q23 28 59 34.5t61 -6.5q19 -9 44 -26q28 -18 41 -18q20 0 30.5 9t17.5 35l2 6h63v-8q0 -42 -17 -74t-47 -46q-21 -9 -44 -9q-22 0 -41 8.5t-46 25.5q-28 18 -40 18q-22 0 -34 -12t-16 -32zM636 0h-145v267h-309v-267h-145v284q0 22 -1 65
t-1 63.5t2 55.5t8.5 56.5t17 49t28.5 51t42 46.5q86 80 204.5 79.5t204.5 -83t93 -200.5v-2q1 -109 1 -465zM182 412h309v16.5v18.5t-1 18t-3 20.5t-5.5 18.5t-9 20.5t-13.5 19.5t-18 20q-44 41 -103 42t-103 -38q-11 -10 -19.5 -20.5t-14 -19.5t-9.5 -21.5t-6 -19t-3 -21
t-1.5 -18.5t0 -19t0.5 -17z" />
    <glyph glyph-name="Adieresis" unicode="&#xc4;" horiz-adv-x="672" 
d="M436 799q-31 0 -53 22q-21 22 -21 53t21 52q23 23 53 23t53 -23q23 -21 23 -52t-23 -53q-22 -22 -53 -22zM233 799q-31 0 -52 22q-22 22 -22 53t22 52q22 23 52 23t53 -23q23 -21 23 -52t-23 -53q-22 -22 -53 -22zM636 0h-145v267h-309v-267h-145v284q0 22 -1 65t-1 63.5
t2 55.5t8.5 56.5t17 49t28.5 51t42 46.5q86 80 204.5 79.5t204.5 -83t93 -200.5v-2q1 -109 1 -465zM182 412h309v16.5v18.5t-1 18t-3 20.5t-5.5 18.5t-9 20.5t-13.5 19.5t-18 20q-44 41 -103 42t-103 -38q-11 -10 -19.5 -20.5t-14 -19.5t-9.5 -21.5t-6 -19t-3 -21
t-1.5 -18.5t0 -19t0.5 -17z" />
    <glyph glyph-name="Aring" unicode="&#xc5;" horiz-adv-x="672" 
d="M636 0h-145v267h-309v-267h-145v284q0 22 -1 65t-1 63.5t2 55.5t8.5 56.5t17 49t28.5 51t42 46.5q86 80 204.5 79.5t204.5 -83t93 -200.5v-2q1 -109 1 -465zM182 412h309v16.5v18.5t-1 18t-3 20.5t-5.5 18.5t-9 20.5t-13.5 19.5t-18 20q-44 41 -103 42t-103 -38
q-11 -10 -19.5 -20.5t-14 -19.5t-9.5 -21.5t-6 -19t-3 -21t-1.5 -18.5t0 -19t0.5 -17zM334 789q-47 0 -80.5 33.5t-33.5 80.5t33.5 80.5t80.5 33.5t80.5 -33.5t33.5 -80.5t-33.5 -80.5t-80.5 -33.5zM334 951q-20 0 -34 -14t-14 -34t14 -34t34 -14t34 14t14 34t-14 34t-34 14
z" />
    <glyph glyph-name="AE" unicode="&#xc6;" horiz-adv-x="1086" 
d="M691 551q-52 -46 -53 -113h372v-143h-372q1 -65 48 -107.5t133 -42.5h242v-145h-242q-73 0 -133 22t-99.5 59t-62.5 84.5t-29 101.5h-313v-267h-145v284q0 22 -1 65t-1 63.5t2 55.5t8.5 56.5t17 49t28.5 51t42 46.5q86 80 204.5 79.5t204.5 -83.5q14 -13 29 -32
q91 98 248 98h242v-145h-242q-33 0 -71 -10.5t-57 -26.5zM491 412v16.5v19t-1 18t-3 20t-5.5 18.5t-9 20.5t-13.5 19.5t-18 20q-44 41 -103 42t-103 -38q-11 -10 -19.5 -20.5t-14 -19.5t-9.5 -21.5t-6 -19t-3 -21t-1.5 -18.5t0 -19t0.5 -17h309z" />
    <glyph glyph-name="Ccedilla" unicode="&#xc7;" horiz-adv-x="591" 
d="M322 588q-58 0 -101 -37.5t-51 -92.5q-2 -13 -2 -93t2 -89q8 -57 51 -94t101 -37h253v-145h-198q-1 -5 -9 -33q52 -11 76 -33q21 -20 24.5 -50t-9.5 -49q-24 -41 -91 -51t-129 20l13 39q4 10 12 14q9 3 19 -2q18 -10 38.5 -11t33.5 6q14 9 14 25q0 11 -7 19t-22 13t-26 7
t-30 4q-7 1 -10 2q23 74 25 81q-3 -10 -59 11t-72 31q-59 36 -96 93q-30 46 -41 106q-12 63 -7 196q3 80 43 147q40 68 108.5 108t146.5 40h253v-145h-253z" />
    <glyph glyph-name="Egrave" unicode="&#xc8;" horiz-adv-x="615" 
d="M358 799q-17 0 -28 15l-148 193h130q21 0 31 -21l97 -187h-82zM220 551q-52 -46 -53 -113h372v-143h-372q1 -65 48 -107.5t133 -42.5h242v-145h-242q-77 0 -146 29.5t-115 87.5q-40 51 -52 109.5t-12 144.5q0 89 13.5 149t59.5 111t112 76.5t140 25.5h242v-145h-242
q-33 0 -71 -10.5t-57 -26.5z" />
    <glyph glyph-name="Eacute" unicode="&#xc9;" horiz-adv-x="617" 
d="M398 814q-11 -15 -28 -15h-83l97 187q11 21 32 21h130zM222 551q-52 -46 -53 -113h372v-143h-372q1 -65 48 -107.5t133 -42.5h243v-145h-243q-77 0 -146.5 30t-114.5 88q-48 60 -59.5 137.5t-4.5 180.5q7 105 54 172q45 62 117 93.5t154 31.5h243v-145h-243
q-33 0 -70.5 -10.5t-57.5 -26.5z" />
    <glyph glyph-name="Ecircumflex" unicode="&#xca;" horiz-adv-x="615" 
d="M220 551q-52 -46 -53 -113h372v-143h-372q1 -65 48 -107.5t133 -42.5h242v-145h-242q-77 0 -146 29.5t-115 87.5q-40 51 -52 109.5t-12 144.5q0 88 13.5 148.5t59.5 111.5t112 76.5t140 25.5h242v-145h-242q-33 0 -71 -10.5t-57 -26.5zM283 817q-11 -14 -29 -14h-94
l139 187h105l139 -187h-94q-18 0 -29 14l-68 91z" />
    <glyph glyph-name="Edieresis" unicode="&#xcb;" horiz-adv-x="617" 
d="M465 799q-31 0 -52.5 22t-21.5 53t22 52q22 23 52 23t53 -23q23 -22 23 -52.5t-23 -52.5q-22 -22 -53 -22zM262 799q-31 0 -52 22q-22 22 -22 53t22 52q22 23 52.5 23t53.5 -23q22 -21 22 -52t-22 -53q-23 -22 -54 -22zM222 551q-52 -46 -53 -113h372v-143h-372
q1 -65 48 -107.5t133 -42.5h242v-145h-242q-77 0 -146 29.5t-115 87.5q-47 60 -58.5 136t-5.5 179q6 110 56 178q45 61 116.5 92t152.5 31h242v-145h-242q-34 0 -71.5 -10.5t-56.5 -26.5z" />
    <glyph glyph-name="Igrave" unicode="&#xcc;" horiz-adv-x="235" 
d="M44 1l1 730h144v-730h-145zM123 799q-17 0 -28 15l-148 193h130q21 0 31 -21l98 -187h-83z" />
    <glyph glyph-name="Iacute" unicode="&#xcd;" horiz-adv-x="236" 
d="M160 814q-11 -15 -27 -15h-83l97 187q11 21 31 21h130zM44 1l1 730h144v-730h-145z" />
    <glyph glyph-name="Icircumflex" unicode="&#xce;" horiz-adv-x="234" 
d="M44 1l1 730h145v-730h-146zM170 990l139 -187h-95q-17 0 -28 14l-69 91l-69 -91q-11 -14 -28 -14h-95l139 187h106z" />
    <glyph glyph-name="Idieresis" unicode="&#xcf;" horiz-adv-x="235" 
d="M68 926q22 -22 22 -52.5t-22 -52.5q-23 -22 -54 -22t-52 22q-22 22 -22 53t22 52q22 23 52.5 23t53.5 -23zM270 926q23 -22 23 -52.5t-23 -52.5q-22 -22 -53 -22t-52 22q-22 22 -22 53t22 52q22 23 52 23t53 -23zM44 1l1 730h144v-730h-145z" />
    <glyph glyph-name="Eth" unicode="&#xd0;" horiz-adv-x="694" 
d="M669 458q1 -3 1 -94t-5 -119q-12 -64 -45 -113q-41 -62 -106.5 -97t-141.5 -35h-299v308h-56v116h56v308h299q75 0 140.5 -35.5t107.5 -96.5q43 -64 49 -142zM524 275q2 10 2 91.5t-2 90.5q-8 56 -50.5 93.5t-101.5 37.5h-154v-164h103v-116h-103v-164h154
q59 0 101.5 37.5t50.5 93.5z" />
    <glyph glyph-name="Ntilde" unicode="&#xd1;" horiz-adv-x="664" 
d="M237 859q-12 -12 -17 -38h-63q0 64 30 101q23 27 48.5 35.5t48 1t42.5 -19t38.5 -22.5t28.5 -11q23 0 32.5 11t16.5 39h64q0 -98 -64 -128q-27 -12 -54 -9t-45.5 15t-39 23t-34.5 14t-32 -12zM531 667q96 -89 96 -216v-453h-143v388q0 36 0.5 65t-12 59t-41.5 55
q-43 39 -101.5 38t-101.5 -41q-44 -41 -48 -99v-465h-144q0 367 1 466v1q6 117 91 198.5t202 82.5t201 -79z" />
    <glyph glyph-name="Ograve" unicode="&#xd2;" horiz-adv-x="705" 
d="M358 799q-17 0 -28 15l-148 193h130q21 0 32 -21l97 -187h-83zM676 475q1 -6 1 -109v-34v-36t-1 -32t-3.5 -35t-6 -31.5t-10 -34t-14.5 -31.5q-5 -8 -16 -24q-39 -61 -104 -97t-143 -36h-53q-78 0 -144 36q-65 36 -104 97q-32 46 -45 112q-3 16 -4.5 35.5t-1.5 32.5
t0.5 36.5t0.5 33.5v74q0 71 14 115q17 49 49 90q67 84 172 107q31 7 63 7h53q108 0 191.5 -70t101.5 -176q3 -14 4 -30zM531 250q2 12 2 114t-2 112q-8 55 -52 93q-44 39 -127 39t-127 -39q-43 -38 -52 -93q-1 -10 -1.5 -112t1.5 -114q9 -56 52 -93.5t101 -37.5h53
q57 0 100.5 37.5t51.5 93.5z" />
    <glyph glyph-name="Oacute" unicode="&#xd3;" horiz-adv-x="704" 
d="M396 814q-11 -15 -28 -15h-82l97 187q10 21 31 21h130zM676.5 474.5q1.5 -16.5 1.5 -35t-0.5 -42.5t-0.5 -36v-32v-34.5t-1 -31t-3 -33.5t-5.5 -30t-9 -33t-13.5 -30q-6 -11 -18 -29q-40 -61 -105 -97t-143 -36h-53q-78 0 -143 36t-105 97q-34 48 -46 117q-4 21 -5 42.5
t0 57.5t1 44q0 11 -0.5 33.5t-0.5 36t1 32.5t4 35q9 52 36 97q55 92 155 129q50 19 103 19h53q108 0 191.5 -70t102.5 -175q2 -15 3.5 -31.5zM531 250q2 12 2 114t-2 112q-9 59 -55 95.5t-124 36.5q-77 0 -123 -36.5t-55 -95.5q-2 -10 -2 -112t1 -114q9 -57 52 -94t101 -37
h53q58 0 101 37t51 94z" />
    <glyph glyph-name="Ocircumflex" unicode="&#xd4;" horiz-adv-x="704" 
d="M283 817q-11 -14 -28 -14h-95l139 187h106l139 -187h-95q-17 0 -28 14l-69 91zM676 475q1 -17 1.5 -36t-0.5 -42.5t-1 -35.5q0 -5 0.5 -32.5t0 -35.5t-1 -31t-3 -34.5t-6 -30t-9.5 -33.5t-15 -30q-4 -9 -16 -26q-39 -61 -104 -97q-66 -36 -143 -36h-53q-78 0 -144 36
q-65 36 -104 97q-32 46 -45 110q-3 15 -4.5 34t-1.5 31.5t0.5 36.5t0.5 32v120q2 51 24 100.5t59 86.5q76 79 183 90q16 2 32 2h53q108 0 191.5 -70.5t101.5 -175.5q3 -14 4 -30zM531 250q2 12 2 114t-2 112q-9 59 -55 95.5t-124 36.5q-77 0 -123.5 -36.5t-55.5 -95.5
q-1 -10 -1.5 -112t1.5 -114q9 -57 51.5 -94t101.5 -37h53q58 0 100.5 37t51.5 94z" />
    <glyph glyph-name="Otilde" unicode="&#xd5;" horiz-adv-x="706" 
d="M241 827l-1 -6h-63v7q0 57 31 94q23 28 59 34.5t61 -6.5q19 -9 44 -26q28 -18 41 -18q20 0 30.5 9t17.5 35l2 6h63v-8q0 -42 -17 -74t-47 -46q-21 -9 -44 -9q-22 0 -41 8.5t-46 25.5q-28 18 -40 18q-22 0 -33 -12q-12 -12 -17 -32zM676 475q3 -44 1 -144q0 -4 -0.5 -26
t-1 -30t-1.5 -25t-3 -30t-5 -25q-8 -32 -23 -60q-5 -10 -17 -27q-39 -61 -104 -97q-66 -36 -144 -36h-53q-78 0 -143 36t-105 97q-27 39 -39 85q-4 14 -6.5 29t-3.5 32.5t-1 28.5v33v30v69q0 83 12 122q15 50 46 92q64 87 168 113q36 9 72 9h53q108 0 191.5 -70t102.5 -176
q2 -14 4 -30zM531 250q2 12 1.5 114t-1.5 112q-9 55 -52 93q-44 39 -127 39t-127 -39q-44 -38 -52 -93q-2 -10 -2 -112t2 -114q8 -56 51 -93.5t101 -37.5h53q58 0 101 37.5t52 93.5z" />
    <glyph glyph-name="Odieresis" unicode="&#xd6;" horiz-adv-x="704" 
d="M453 799q-31 0 -53 22t-22 53t22 52q22 23 52.5 23t53.5 -23q23 -21 23 -52t-23 -53q-22 -22 -53 -22zM250 799q-31 0 -53 22t-22 53t22 52q22 23 52.5 23t53.5 -23q23 -22 23 -52.5t-23 -52.5q-22 -22 -53 -22zM676 474.5q1 -16.5 1 -35t-0.5 -41.5t-0.5 -35
q0 -6 0.5 -33t0 -36t-1 -31.5t-3 -34.5t-6 -31t-10 -34t-14.5 -31q-5 -8 -16 -24q-39 -61 -104 -97q-66 -36 -143 -36h-53q-78 0 -144 36q-65 36 -104 97q-28 40 -41 86q-5 18 -7.5 42t-2.5 37.5t0.5 45t0.5 39.5v74q0 71 14 114q17 50 49 91q67 84 172 107q31 7 63 7h53
q108 0 191.5 -70t101.5 -176q3 -14 4 -30.5zM531 250q2 12 1.5 114t-1.5 112q-9 55 -52 93q-44 39 -127 39t-127 -39q-43 -38 -52 -93q-1 -10 -1.5 -112t1.5 -114q9 -56 52 -93.5t101 -37.5h53q57 0 100 37.5t52 93.5z" />
    <glyph glyph-name="multiply" unicode="&#xd7;" horiz-adv-x="499" 
d="M476 510l-145 -145l145 -145l-82 -82l-145 145l-145 -145l-82 82l145 145l-145 145l82 82l145 -145l145 145z" />
    <glyph glyph-name="Oslash" unicode="&#xd8;" horiz-adv-x="711" 
d="M678 473q1 -14 0.5 -62.5t-0.5 -63.5q1 -93 -5 -128q-12 -63 -45 -111q-40 -61 -105 -97t-143 -36h-53q-78 0 -143 36q-10 5 -21 12l-24 -33q-12 -16 -33 -16h-59l67 90q-20 20 -35 44q-10 15 -15 23q-8 15 -14.5 30.5t-10 34.5t-6 31t-3.5 35t-1 31.5v36.5v33
q0 12 -0.5 35t-0.5 37.5t1 34t4 35.5q19 106 102.5 176t191.5 70h53q106 0 189 -68l37 51q13 17 33 17h60l-85 -115q58 -73 64 -163zM174 250q6 -38 27 -67l282 384l-1 0.5t-1 1.5q-45 39 -127.5 39t-127.5 -39q-43 -38 -52 -93q-1 -10 -1 -112t1 -114zM532 250q2 12 2 114
t-2 112q-3 18 -10 35l-273 -371q34 -21 78 -21h53q58 0 101 37.5t51 93.5z" />
    <glyph glyph-name="Ugrave" unicode="&#xd9;" horiz-adv-x="670" 
d="M340 799q-16 0 -28 15l-147 193h129q21 0 32 -21l97 -187h-83zM487 729h145v-470v-1q-6 -118 -92 -200.5t-204 -83t-204 79.5q-96 90 -96 219v456h144v-391q1 -36 0 -65.5t12 -60t42 -55.5q43 -39 102 -38t103 42t48 99v469z" />
    <glyph glyph-name="Uacute" unicode="&#xda;" horiz-adv-x="670" 
d="M378 814q-11 -15 -28 -15h-83l98 187q10 21 31 21h130zM487 729h145v-470v-1q-6 -118 -92 -200.5t-204 -83t-204 79.5q-96 90 -96 219v456h144v-391q1 -36 0 -65.5t12 -60t42 -55.5q43 -39 102 -38t103 42t48 99v469z" />
    <glyph glyph-name="Ucircumflex" unicode="&#xdb;" horiz-adv-x="670" 
d="M265 817q-11 -14 -28 -14h-95l140 187h105l139 -187h-95q-17 0 -28 14l-69 91zM487 729h145v-470v-1q-6 -118 -92 -200.5t-204 -83t-204 79.5q-96 90 -96 219v456h144v-391q1 -36 0 -65.5t12 -60t42 -55.5q43 -39 102 -38t103 42t48 99v469z" />
    <glyph glyph-name="Udieresis" unicode="&#xdc;" horiz-adv-x="670" 
d="M435 799q-31 0 -53 22t-22 53t22 52q22 23 52.5 23t53.5 -23q23 -22 23 -52.5t-23 -52.5q-22 -22 -53 -22zM232 799q-31 0 -53 22q-21 22 -21 53t21 52q23 23 53 23t53 -23q23 -22 23 -52.5t-23 -52.5q-22 -22 -53 -22zM487 729h145v-470v-1q-6 -118 -92 -200.5t-204 -83
t-204 79.5q-96 90 -96 219v456h144v-391q1 -36 0 -65.5t12 -60t42 -55.5q43 -39 102 -38t103 42t48 99v469z" />
    <glyph glyph-name="Yacute" unicode="&#xdd;" horiz-adv-x="622" 
d="M354 814q-11 -15 -28 -15h-83l98 187q10 21 31 21h130zM463 529v199h145v-187q0 -109 -66.5 -188t-158.5 -101v-254h-145v254q-87 21 -151.5 92.5t-73.5 170.5q-1 9 -1 213h144v-187q0 -68 54 -116q43 -39 102 -38t103 42t48 100z" />
    <glyph glyph-name="Thorn" unicode="&#xde;" horiz-adv-x="651" 
d="M403 610q99 0 169 -70t70 -169t-69.5 -169t-167.5 -70h-215v-132h-145v94v636h145v-120h213zM403 276q35 0 59.5 19.5t30 47.5t0 56t-30.5 47.5t-62 19.5h-210v-190h213z" />
    <glyph glyph-name="germandbls" unicode="&#xdf;" horiz-adv-x="645" 
d="M587 298q36 -39 42 -92t-14 -100.5t-66.5 -85t-109.5 -48.5q-113 -19 -204 35l63 106q51 -31 120 -19q35 6 62.5 31.5t26.5 55.5q0 20 -21.5 40.5t-52 38.5t-64 42t-57.5 50.5t-32.5 65.5t10.5 86q15 40 53.5 69.5t81.5 35.5q-51 48 -110 45q-56 -3 -94.5 -45.5
t-38.5 -99.5v-507h-140v506q0 117 82 202t199 85q63 0 119.5 -27t96.5 -75q28 -34 45 -76l-75 -128q-28 7 -51.5 2.5t-38.5 -16.5q-17 -16 -14 -34.5t20 -32.5q13 -12 51 -30q68 -34 111 -80z" />
    <glyph glyph-name="agrave" unicode="&#xe0;" horiz-adv-x="610" 
d="M297.5 562q116.5 0 199 -82.5t82.5 -198.5v-281h-141v281q0 58 -41 99t-99 41t-99.5 -41t-41.5 -99t41.5 -99.5t99.5 -41.5q37 0 70 19v-150q-34 -9 -70 -9q-117 0 -199 82t-82 198.5t82 199t198.5 82.5zM304 629q-16 0 -26 12l-148 163h128q20 0 30 -17l97 -158h-81z
" />
    <glyph glyph-name="aacute" unicode="&#xe1;" 
d="M340 641q-11 -12 -26 -12h-81l97 158q10 17 30 17h127zM297.5 562q116.5 0 199 -82.5t82.5 -198.5v-281h-141v281q0 58 -41 99t-99 41t-99.5 -41t-41.5 -99t41.5 -99.5t99.5 -41.5q37 0 70 19v-150q-34 -9 -70 -9q-117 0 -199 82t-82 198.5t82 199t198.5 82.5z" />
    <glyph glyph-name="acircumflex" unicode="&#xe2;" horiz-adv-x="610" 
d="M239 645q-11 -12 -27 -12h-93l138 162h104l138 -162h-93q-16 0 -27 12l-70 81zM297.5 562q116.5 0 199 -82.5t82.5 -198.5v-281h-141v281q0 58 -41 99t-99 41t-99.5 -41t-41.5 -99t41.5 -99.5t99.5 -41.5q37 0 70 19v-150q-34 -9 -70 -9q-117 0 -199 82t-82 198.5t82 199
t198.5 82.5z" />
    <glyph glyph-name="atilde" unicode="&#xe3;" horiz-adv-x="610" 
d="M297.5 562q116.5 0 199 -82.5t82.5 -198.5v-281h-141v281q0 58 -41 99t-99 41t-99.5 -41t-41.5 -99t41.5 -99.5t99.5 -41.5q37 0 70 19v-150q-34 -9 -70 -9q-117 0 -199 82t-82 198.5t82 199t198.5 82.5zM248 701q-23 0 -35 -12.5t-17 -37.5h-60q0 62 30 98
q23 28 58.5 34.5t59.5 -7.5q18 -8 36.5 -19.5t29 -17.5t20.5 -6q24 0 34 11t17 38h61v-5q0 -42 -17 -73.5t-47 -45.5q-42 -20 -83 -1q-17 8 -35.5 19.5t-30 18t-21.5 6.5z" />
    <glyph glyph-name="adieresis" unicode="&#xe4;" horiz-adv-x="610" 
d="M457 635q-21 -20 -50.5 -20t-50 20.5t-20.5 50t20 50.5q22 21 50.5 21t50.5 -21q21 -21 21 -50.5t-21 -50.5zM261 635q-22 -20 -51 -20t-50 20.5t-21 50t21 50.5t50 21t51 -21q21 -21 21 -50.5t-21 -50.5zM297.5 562q116.5 0 199 -82.5t82.5 -198.5v-281h-141v281
q0 58 -41 99t-99 41t-99.5 -41t-41.5 -99t41.5 -99.5t99.5 -41.5q37 0 70 19v-150q-34 -9 -70 -9q-117 0 -199 82t-82 198.5t82 199t198.5 82.5z" />
    <glyph glyph-name="aring" unicode="&#xe5;" 
d="M309 609q-46 0 -79 33t-33 79.5t33 79t79 32.5t79 -32.5t33 -79t-33 -79.5t-79 -33zM309 771q-21 0 -35.5 -14.5t-14.5 -35t14.5 -35.5t35.5 -15t35.5 15t14.5 35.5t-14.5 35t-35.5 14.5zM297.5 562q116.5 0 199 -82.5t82.5 -198.5v-281h-141v281q0 58 -41 99t-99 41
t-99.5 -41t-41.5 -99t41.5 -99.5t99.5 -41.5q37 0 70 19v-150q-34 -9 -70 -9q-117 0 -199 82t-82 198.5t82 199t198.5 82.5z" />
    <glyph glyph-name="ae" unicode="&#xe6;" horiz-adv-x="1011" 
d="M993 321q11 -74 -16 -143h-165h-117l2 140h153q-5 36 -41 66.5t-83.5 35.5t-96.5 -29q-44 -34 -52.5 -89.5t22.5 -100.5q34 -50 97 -59l-1 -141q-48 3 -89 20q-59 25 -101 73q-18 -19 -37 -34q-92 -71 -207.5 -56.5t-186.5 106.5q-67 86 -58 195q1 16 7 47.5t11 31.5
l165 -1h116l-2 -140h-152q3 -21 24 -47q35 -46 93 -53.5t104 28.5q44 34 52.5 89t-22.5 100q-35 50 -97 60l1 140q48 -3 89 -20q59 -25 101 -73q17 19 37 35q62 47 137 56t139 -16.5t112.5 -83t60.5 -134.5z" />
    <glyph glyph-name="ccedilla" unicode="&#xe7;" horiz-adv-x="507" 
d="M496 82q-80 -80 -194 -82l-10 -35q47 -11 69 -31q20 -18 23 -45.5t-9 -44.5q-22 -39 -85 -47.5t-112 16.5l-5 2l12 37q3 9 11 12q9 4 18 -1q16 -9 34.5 -10.5t30.5 5.5q14 8 13 24.5t-19 23.5q-6 2 -23 6t-31 6l-14 3q23 75 26 87q-93 23 -153.5 99t-60.5 174
q0 116 82 198.5t198.5 82.5t198.5 -83l-99 -99q-41 41 -99 41t-99.5 -41t-41.5 -99t41.5 -99.5t99.5 -41.5t99 41z" />
    <glyph glyph-name="egrave" unicode="&#xe8;" horiz-adv-x="548" 
d="M284 629q-16 0 -26 12l-148 163h128q20 0 30 -17l97 -158h-81zM289 141q60 -4 106 40l111 -87q-32 -36 -71 -58q-64 -36 -137 -36q-97 0 -173 59.5t-99 151.5q-9 34 -9 70q0 116 82 198.5t199 82.5q71 0 134 -35l3 -2q65 -36 104 -100l-102 -130l-71 -92l-110 87l94 121
q-19 10 -52 10q-58 0 -99.5 -41t-41.5 -99q0 -56 38 -96.5t94 -43.5z" />
    <glyph glyph-name="eacute" unicode="&#xe9;" horiz-adv-x="548" 
d="M320 641q-10 -12 -26 -12h-81l97 158q10 17 30 17h128zM289 141q61 -4 106 40l111 -87q-32 -36 -71 -58q-63 -36 -137 -36q-97 0 -172.5 59.5t-99.5 151.5q-12 54 -7 104.5t30 95.5t61 78.5t85 53t103 19.5q72 0 134 -35h1l2 -2q66 -36 104 -100l-101 -130l-72 -92
l-109 87l93 121q-18 10 -52 10q-58 0 -99 -41t-41 -99q0 -56 38 -96.5t93 -43.5z" />
    <glyph glyph-name="ecircumflex" unicode="&#xea;" horiz-adv-x="548" 
d="M219 645q-11 -12 -27 -12h-92l137 162h104l138 -162h-93q-16 0 -27 12l-70 81zM289 141q60 -4 106 40l111 -87q-32 -36 -71 -58q-64 -36 -137 -36q-97 0 -173 59.5t-99 151.5q-9 34 -9 70q0 116 82 198.5t199 82.5q71 0 134 -35l3 -2q65 -36 104 -100l-102 -130l-71 -92
l-110 87l94 121q-19 10 -52 10q-58 0 -99.5 -41t-41.5 -99q0 -56 38 -96.5t94 -43.5z" />
    <glyph glyph-name="edieresis" unicode="&#xeb;" horiz-adv-x="548" 
d="M437 635q-21 -20 -50.5 -20t-49.5 20q-21 21 -21 50.5t21 50.5t49.5 21t50.5 -21t22 -50.5t-22 -50.5zM241 635q-21 -20 -50.5 -20t-50.5 20q-20 21 -20 50.5t20 50.5q21 21 50 21t51 -21q21 -21 21 -50.5t-21 -50.5zM289 141q60 -4 106 40l111 -87q-32 -36 -71 -58
q-64 -36 -137 -36q-97 0 -173 59.5t-99 151.5q-9 34 -9 70q0 116 82 198.5t199 82.5q71 0 134 -35l3 -2q65 -36 104 -100l-102 -130l-71 -92l-110 87l94 121q-19 10 -52 10q-58 0 -99.5 -41t-41.5 -99q0 -56 38 -96.5t94 -43.5z" />
    <glyph glyph-name="igrave" unicode="&#xec;" horiz-adv-x="226" 
d="M119 629q-16 0 -27 12l-147 163h128q19 0 30 -17l96 -158h-80zM183 0h-141v562h141v-562z" />
    <glyph glyph-name="iacute" unicode="&#xed;" horiz-adv-x="224" 
d="M154 641q-10 -12 -26 -12h-81l97 158q11 17 30 17h128zM182 0h-140v562h140v-562z" />
    <glyph glyph-name="icircumflex" unicode="&#xee;" horiz-adv-x="227" 
d="M183 0h-141v562h141v-562zM164 795l138 -162h-92q-16 0 -27 12l-70 81l-71 -81q-10 -12 -27 -12h-92l138 162h103z" />
    <glyph glyph-name="idieresis" unicode="&#xef;" horiz-adv-x="225" 
d="M183 0h-141v562h141v-562zM64 736q22 -21 22 -50.5t-22 -50.5q-21 -20 -50.5 -20t-49.5 20q-21 21 -21 50.5t21 50.5t49.5 21t50.5 -21zM260 736q22 -21 22 -50.5t-22 -50.5q-21 -20 -50.5 -20t-49.5 20q-21 21 -21 50.5t21 50.5t50 21t50 -21z" />
    <glyph glyph-name="eth" unicode="&#xf0;" 
d="M579 484v0v-211q0 -116 -82.5 -198.5t-199 -82.5t-198.5 82.5t-82 198.5t82 198.5t199 82.5q36 0 70 -9v-150q-33 19 -70 19q-58 0 -99.5 -41.5t-41.5 -99.5t41.5 -99t99.5 -41t99 41t41 99v211q0 62 -47 104l-36 36l-121 -46l-31 82l83 32l-41 41l99 99l86 -86l146 56
l32 -83l-108 -41q79 -81 79 -194z" />
    <glyph glyph-name="ntilde" unicode="&#xf1;" horiz-adv-x="495" 
d="M180 701q-23 0 -34.5 -12.5t-17.5 -37.5h-60q0 62 31 98q23 28 58.5 34.5t59.5 -7.5q17 -8 35.5 -19.5t29.5 -17.5t21 -6q23 0 33 11t18 38h60v-5q0 -42 -16.5 -73.5t-46.5 -45.5q-43 -20 -84 -1q-17 8 -35.5 19.5t-30 18t-21.5 6.5zM182 562q117 0 199 -82.5t82 -198.5
v-281h-140v281q0 58 -41 99t-100 41v-421h-140v562h140z" />
    <glyph glyph-name="ograve" unicode="&#xf2;" horiz-adv-x="596" 
d="M303 629q-15 0 -26 12l-147 163h127q20 0 30 -17l97 -158h-81zM297.5 562q116.5 0 199 -82.5t82.5 -199t-82.5 -198.5t-199 -82t-198.5 82t-82 198.5t82 199t198.5 82.5zM298 140q58 0 99 41.5t41 99.5t-41 99t-99 41t-99.5 -41t-41.5 -99t41.5 -99.5t99.5 -41.5z" />
    <glyph glyph-name="oacute" unicode="&#xf3;" horiz-adv-x="597" 
d="M318 641q-11 -12 -27 -12h-80l96 158q11 17 30 17h128zM297.5 562q116.5 0 198.5 -82.5t82 -199t-82 -198.5t-198.5 -82t-198.5 82t-82 198.5t82 199t198.5 82.5zM298 140q58 0 99 41.5t41 99.5t-41.5 99t-98.5 41q-58 0 -99.5 -41t-41.5 -99t41.5 -99.5t99.5 -41.5z" />
    <glyph glyph-name="ocircumflex" unicode="&#xf4;" horiz-adv-x="596" 
d="M227 645q-10 -12 -26 -12h-93l138 162h103l138 -162h-92q-16 0 -27 12l-70 81zM297.5 562q116.5 0 198.5 -82.5t82 -199t-82 -198.5t-198.5 -82t-198.5 82t-82 198.5t82 199t198.5 82.5zM298 140q58 0 99 41.5t41 99.5t-41.5 99t-98.5 41q-58 0 -99.5 -41t-41.5 -99
t41.5 -99.5t99.5 -41.5z" />
    <glyph glyph-name="otilde" unicode="&#xf5;" horiz-adv-x="596" 
d="M297.5 562q116.5 0 198.5 -82.5t82 -199t-82 -198.5t-198.5 -82t-198.5 82t-82 198.5t82 199t198.5 82.5zM298 140q58 0 99 41.5t41 99.5t-41.5 99t-98.5 41q-58 0 -99.5 -41t-41.5 -99t41.5 -99.5t99.5 -41.5zM237 701q-23 0 -35 -12.5t-17 -37.5h-60q0 62 30 98
q23 28 58.5 34.5t59.5 -7.5q18 -8 36 -19.5t29 -17.5t21 -6q23 0 33 11t18 38h61v-5q0 -42 -17 -73.5t-47 -45.5q-42 -20 -83 -1q-18 8 -36 19.5t-29.5 18t-21.5 6.5z" />
    <glyph glyph-name="odieresis" unicode="&#xf6;" horiz-adv-x="596" 
d="M446 635q-21 -20 -50.5 -20t-50.5 20q-20 21 -20 50.5t20 50.5q21 21 50 21t51 -21q21 -21 21 -50.5t-21 -50.5zM249 635q-21 -20 -50.5 -20t-49.5 20q-21 21 -21 50.5t21 50.5t49.5 21t50.5 -21t22 -50.5t-22 -50.5zM297.5 562q116.5 0 198.5 -82.5t82 -199t-82 -198.5
t-198.5 -82t-198.5 82t-82 198.5t82 199t198.5 82.5zM298 140q58 0 99 41.5t41 99.5t-41 99t-99 41t-99.5 -41t-41.5 -99t41.5 -99.5t99.5 -41.5z" />
    <glyph glyph-name="divide" unicode="&#xf7;" horiz-adv-x="518" 
d="M492 207h-466v116h466v-116zM259 347q-32 0 -54.5 22.5t-22.5 54t22.5 54t54.5 22.5t54.5 -22.5t22.5 -54t-22.5 -54t-54.5 -22.5zM259 30q-32 0 -54.5 22.5t-22.5 54t22.5 54t54.5 22.5t54.5 -22.5t22.5 -54t-22.5 -54t-54.5 -22.5z" />
    <glyph glyph-name="oslash" unicode="&#xf8;" horiz-adv-x="600" 
d="M487 490q44 -39 68.5 -93.5t24.5 -115.5q0 -116 -82 -198t-198 -82q-77 0 -143 38l-21 -29q-10 -14 -28 -14h-51l55 76q-43 40 -68 94t-25 115q0 117 82 199t199 82q76 0 142 -39l21 29q11 15 29 15h51zM159 281q0 -54 37 -94l162 222q-28 13 -58 13q-58 0 -99.5 -41.5
t-41.5 -99.5zM399 182q41 41 41 99q0 54 -37 95l-162 -222q28 -13 59 -13q58 0 99 41z" />
    <glyph glyph-name="ugrave" unicode="&#xf9;" horiz-adv-x="557" 
d="M284 629q-15 0 -26 12l-147 163h127q20 0 30 -17l97 -158h-81zM524 562v-117v-88v-60v-43t-1 -26.5t-2 -20.5t-3 -16q-21 -90 -88.5 -140t-151.5 -51q-83 1 -151 51t-88 140q-3 9 -4 16t-2 20.5t-1 26.5v43v60t0.5 88t0.5 117h140v-88t-0.5 -73.5t-0.5 -58t0.5 -47.5
t2 -35.5t3.5 -29.5t5.5 -21t8 -18t10.5 -15q31 -34 76.5 -34t75.5 34q7 8 11.5 15t7.5 18t5 21t3.5 29.5t2 35.5t0.5 47.5v58t-0.5 73.5t-0.5 88h141z" />
    <glyph glyph-name="uacute" unicode="&#xfa;" horiz-adv-x="557" 
d="M320 641q-10 -12 -26 -12h-81l97 158q10 17 30 17h128zM524 562v-117v-88v-60v-43t-1 -26.5t-2 -20.5t-3 -16q-21 -90 -88.5 -140t-151.5 -51q-83 1 -151 51t-88 140q-3 9 -4 16t-2 20.5t-1 26.5v43v60t0.5 88t0.5 117h140v-88t-0.5 -73.5t-0.5 -58t0.5 -47.5t2 -35.5
t3.5 -29.5t5.5 -21t8 -18t10.5 -15q31 -34 76.5 -34t75.5 34q7 8 11.5 15t7.5 18t5 21t3.5 29.5t2 35.5t0.5 47.5v58t-0.5 73.5t-0.5 88h141z" />
    <glyph glyph-name="ucircumflex" unicode="&#xfb;" horiz-adv-x="557" 
d="M208 645q-11 -12 -27 -12h-92l137 162h104l138 -162h-93q-16 0 -27 12l-70 81zM524 562v-117v-88v-60v-43t-1 -26.5t-2 -20.5t-3 -16q-21 -90 -88.5 -140t-151.5 -51q-83 1 -151 51t-88 140q-3 9 -4 16t-2 20.5t-1 26.5v43v60t0.5 88t0.5 117h140v-88t-0.5 -73.5
t-0.5 -58t0.5 -47.5t2 -35.5t3.5 -29.5t5.5 -21t8 -18t10.5 -15q31 -34 76.5 -34t75.5 34q7 8 11.5 15t7.5 18t5 21t3.5 29.5t2 35.5t0.5 47.5v58t-0.5 73.5t-0.5 88h141z" />
    <glyph glyph-name="udieresis" unicode="&#xfc;" horiz-adv-x="557" 
d="M426 635q-21 -20 -50.5 -20t-49.5 20q-21 21 -21 50.5t21 50.5t49.5 21t50.5 -21t22 -50.5t-22 -50.5zM524 562v-117v-88v-60v-43t-1 -26.5t-2 -20.5t-3 -16q-21 -90 -88.5 -140t-151.5 -51q-83 1 -151 51t-88 140q-3 9 -4 16t-2 20.5t-1 26.5v43v60t0.5 88t0.5 117h140
v-88t-0.5 -73.5t-0.5 -58t0.5 -47.5t2 -35.5t3.5 -29.5t5.5 -21t8 -18t10.5 -15q31 -34 76.5 -34t75.5 34q7 8 11.5 15t7.5 18t5 21t3.5 29.5t2 35.5t0.5 47.5v58t-0.5 73.5t-0.5 88h141zM230 635q-21 -20 -50.5 -20t-50.5 20q-20 21 -20 50.5t20 50.5q21 21 50 21t51 -21
q21 -21 21 -50.5t-21 -50.5z" />
    <glyph glyph-name="yacute" unicode="&#xfd;" horiz-adv-x="493" 
d="M282 641q-11 -12 -26 -12h-81l97 158q10 17 29 17h128zM310 562h140v-562q0 -116 -82 -198.5t-199 -82.5q-35 0 -70 9v151q33 -19 70 -19q59 0 100 41t41 99q-117 0 -199 82t-82 199v281h140v-281q0 -58 41.5 -99.5t99.5 -41.5v422z" />
    <glyph glyph-name="thorn" unicode="&#xfe;" horiz-adv-x="621" 
d="M323 562q116 0 198.5 -82t82.5 -198.5t-82.5 -198.5t-198.5 -82q-36 0 -70 9v150q32 -19 70 -19q58 0 99 41.5t41 99.5t-41 99t-99 41t-99.5 -41t-41.5 -99v-492h-140v492v1v386h140v-144q66 37 141 37z" />
    <glyph glyph-name="ydieresis" unicode="&#xff;" horiz-adv-x="493" 
d="M388 635q-22 -20 -51 -20t-50 20q-21 21 -21 50.5t21 50.5t50 21t50 -21q22 -21 22 -50.5t-21 -50.5zM191 635q-21 -20 -50.5 -20t-49.5 20q-21 21 -21 50.5t21 50.5t49.5 21t50.5 -21t22 -50.5t-22 -50.5zM310 562h140v-562q0 -116 -82 -198.5t-199 -82.5q-35 0 -70 9
v151q33 -19 70 -19q59 0 100 41t41 99q-117 0 -199 82t-82 199v281h140v-281q0 -58 41.5 -99.5t99.5 -41.5v422z" />
    <glyph glyph-name="dotlessi" unicode="&#x131;" horiz-adv-x="226" 
d="M182 0h-140v562h140v-562z" />
    <glyph glyph-name="OE" unicode="&#x152;" horiz-adv-x="944" 
d="M548 546q-52 -45 -53 -112h372v-143h-372q1 -65 48 -107.5t133 -42.5h243v-145h-597q-42 0 -81 11q-102 29 -163 116q-30 42 -44 92q-10 38 -10 121q0 12 -0.5 37t-0.5 40t1.5 36t4.5 39q20 105 102.5 172.5t190.5 67.5h597v-144h-243q-33 0 -70.5 -10.5t-57.5 -27.5z
M392 141q-17 29 -26 58.5t-12 51l-3 21.5v180l1 5q6 69 41 127h-71q-59 0 -101.5 -37.5t-51.5 -93.5q-1 -13 -1 -92.5t1 -88.5q9 -57 52 -94t101 -37h70z" />
    <glyph glyph-name="oe" unicode="&#x153;" horiz-adv-x="1017" 
d="M997 321q11 -74 -16 -143h-165h-116l2 140h152q-3 21 -24 48q-35 46 -93 53t-104 -28q-44 -34 -52.5 -89t22.5 -101q35 -50 97 -59l-1 -141q-48 3 -89 20q-59 25 -102 74q-39 -45 -94 -70t-116 -25q-117 0 -199 82t-82 198.5t82 198.5t199 82q62 0 117 -25t94 -70
q17 19 38 36q92 71 207.5 56.5t186.5 -106.5q44 -57 55 -128h1v-3zM298 140q58 0 99 41.5t41 99.5t-41.5 99t-98.5 41q-58 0 -99.5 -41t-41.5 -99t41.5 -99.5t99.5 -41.5z" />
    <glyph glyph-name="Scaron" unicode="&#x160;" horiz-adv-x="620" 
d="M364 803h-106l-139 187h95q17 0 28 -15l69 -91l69 91q11 15 28 15h95zM531 403q36 -37 54 -82.5t16.5 -90t-19 -87.5t-47.5 -75t-73.5 -52t-93.5 -21h-328v144h322q36 0 60.5 19.5t29.5 47.5t-0.5 56t-30 47.5t-59.5 19.5q-93 0 -139 -1q-81 0 -137 51.5t-65 123.5
q-12 92 49 159.5t150 67.5h329v-144h-333v-1q-32 -2 -45.5 -28.5t-0.5 -53.5t46 -29v-1h146q99 0 169 -70z" />
    <glyph glyph-name="scaron" unicode="&#x161;" horiz-adv-x="492" 
d="M299 633h-103l-138 162h92q17 0 27 -13l71 -81l70 81q11 13 27 13h92zM297 350q72 0 122.5 -51t50.5 -123t-51 -123t-123 -51h-1h-257v139h258q14 0 24.5 10.5t10.5 24.5t-10.5 24.5t-24.5 10.5h-98q-72 1 -122.5 52t-50.5 122q0 73 51 124t123 51h1h235v-140h-235
q-15 0 -25 -10t-10 -24.5t10 -24.5t25 -10h97v-1z" />
    <glyph glyph-name="Ydieresis" unicode="&#x178;" horiz-adv-x="621" 
d="M459 826q-20 -20 -48 -20t-47.5 20t-19.5 48t19 47q21 21 48 20.5t47.5 -20.5t20.5 -47.5t-20 -47.5zM463 529v199h145v-187q0 -109 -66.5 -188t-158.5 -101v-254h-145v254q-87 21 -151.5 92.5t-73.5 170.5q-1 9 -1 213h144v-187q0 -68 54 -116q43 -39 102 -38t103 42
t48 100zM256 826q-20 -20 -48 -20t-47.5 20t-19.5 48t20 47q20 21 47 20.5t48 -20.5t21 -47.5t-21 -47.5z" />
    <glyph glyph-name="zcaron" unicode="&#x17e;" horiz-adv-x="532" 
d="M317 633h-103l-138 162h92q17 0 27 -13l71 -81l70 81q11 13 27 13h92zM240 140h271v-140h-421q-29 0 -49.5 20.5t-20.5 49.5q0 28 19 48l252 303h-271v141h421q29 0 49.5 -21t20.5 -50q0 -28 -20 -49z" />
    <glyph glyph-name="endash" unicode="&#x2013;" horiz-adv-x="440" 
d="M420 215h-402v116h402v-116z" />
    <glyph glyph-name="emdash" unicode="&#x2014;" horiz-adv-x="644" 
d="M625 215h-607v116h607v-116z" />
    <glyph glyph-name="quoteleft" unicode="&#x2018;" horiz-adv-x="188" 
d="M93 831h76v-140q0 -32 -22.5 -54.5t-53.5 -22.5q-44 0 -66.5 38t-0.5 76z" />
    <glyph glyph-name="quoteright" unicode="&#x2019;" horiz-adv-x="181" 
d="M95 831q44 0 66 -38t1 -76l-67 -103h-77v140q0 32 22.5 54.5t54.5 22.5z" />
    <glyph glyph-name="quotesinglbase" unicode="&#x201a;" horiz-adv-x="193" 
d="M97 158q44 0 66 -38t1 -76q-24 -36 -67 -103h-77v140q0 32 22.5 54.5t54.5 22.5z" />
    <glyph glyph-name="quotedblleft" unicode="&#x201c;" horiz-adv-x="380" 
d="M26 728l67 103h76v-140q0 -32 -22.5 -54.5t-53.5 -22.5q-44 0 -66.5 38t-0.5 76zM286 831h77v-140q0 -32 -22.5 -54.5t-54.5 -22.5q-44 0 -66 38t-1 76z" />
    <glyph glyph-name="quotedblright" unicode="&#x201d;" horiz-adv-x="374" 
d="M95 831q44 0 66 -38t1 -76l-67 -103h-77v140q0 32 22.5 54.5t54.5 22.5zM288 831q44 0 66 -38t1 -76l-67 -103h-77v140q0 32 22.5 54.5t54.5 22.5z" />
    <glyph glyph-name="quotedblbase" unicode="&#x201e;" horiz-adv-x="386" 
d="M97 158q44 0 66 -38t1 -76l-67 -103h-77v140q0 32 22.5 54.5t54.5 22.5zM290 158q44 0 66 -38t1 -76l-67 -103h-77v140q0 32 22.5 54.5t54.5 22.5z" />
    <glyph glyph-name="dagger" unicode="&#x2020;" horiz-adv-x="480" 
d="M475 523v-116h-177v-407h-116v407h-177v116h177v195h116v-195h177z" />
    <glyph glyph-name="bullet" unicode="&#x2022;" horiz-adv-x="255" 
d="M127 470q44 0 75 -30.5t31 -74.5t-30.5 -75t-75.5 -31q-44 0 -75 30.5t-31 74.5q-1 45 30.5 75.5t75.5 30.5z" />
    <glyph glyph-name="ellipsis" unicode="&#x2026;" horiz-adv-x="733" 
d="M94.5 5q-31.5 0 -54 22.5t-22.5 54t22.5 54t54 22.5t54 -22.5t22.5 -54t-22.5 -54t-54 -22.5zM366 5q-32 0 -54.5 22.5t-22.5 54t22.5 54t54.5 22.5t54.5 -22.5t22.5 -54t-22.5 -54t-54.5 -22.5zM637.5 5q-31.5 0 -54 22.5t-22.5 54t22.5 54t54 22.5t54 -22.5t22.5 -54
t-22.5 -54t-54 -22.5z" />
    <glyph glyph-name="guilsinglleft" unicode="&#x2039;" horiz-adv-x="285" 
d="M269 570l-134 -205l134 -205h-118l-134 205l134 205h118z" />
    <glyph glyph-name="guilsinglright" unicode="&#x203a;" horiz-adv-x="286" 
d="M134 570l134 -205l-134 -205h-118l134 205l-134 205h118z" />
    <glyph glyph-name="Euro" unicode="&#x20ac;" horiz-adv-x="652" 
d="M373 587q-47 0 -84.5 -25t-56.5 -66h253v-102h-266v-58h266v-102h-253q18 -41 56 -66t85 -25h252v-144h-252q-107 0 -188.5 66.5t-102.5 168.5h-56v102h49v58h-49v102h56q22 103 103.5 169t187.5 66h252v-144h-252z" />
    </font>
</defs>
</svg>
